<svg id="Icons" enable-background="new 0 0 512 512" height="512" viewBox="0 0 512 512" width="512" xmlns="http://www.w3.org/2000/svg"><g><circle cx="256" cy="256" fill="#ea792e" r="256"/><g><g><g><g><path d="m288.723 309.275v96.908c0 9.038-3.666 17.211-9.585 23.138-5.919 5.919-14.108 9.585-23.138 9.585-18.068 0-32.723-14.655-32.723-32.723v-96.908c0-18.077 14.655-32.724 32.723-32.724s32.723 14.647 32.723 32.724z" fill="#decee5"/><path d="m288.723 309.275v96.908c0 9.038-3.666 17.211-9.585 23.138-5.919 5.919-14.108 9.585-23.138 9.585v-162.355c18.068 0 32.723 14.647 32.723 32.724z" fill="#f4e6f4"/></g><g><g fill="#decee5"><path d="m280.024 352.732h-24.024v9.993h24.024c2.76 0 4.997-2.237 4.997-4.997-.001-2.759-2.238-4.996-4.997-4.996z"/><path d="m280.024 373.049h-24.024v9.993h24.024c2.76 0 4.997-2.237 4.997-4.997-.001-2.759-2.238-4.996-4.997-4.996z"/><path d="m280.024 393.366h-24.024v9.993h24.024c2.76 0 4.997-2.237 4.997-4.997-.001-2.759-2.238-4.996-4.997-4.996z"/><path d="m280.024 332.415h-24.024v9.993h24.024c2.76 0 4.997-2.237 4.997-4.997-.001-2.759-2.238-4.996-4.997-4.996z"/><path d="m280.024 312.098h-24.024v9.993h24.024c2.76 0 4.997-2.237 4.997-4.997-.001-2.759-2.238-4.996-4.997-4.996z"/><path d="m271.616 291.781h-15.616v9.993h15.616c2.76 0 4.997-2.237 4.997-4.997-.001-2.759-2.238-4.996-4.997-4.996z"/><path d="m271.616 413.683h-15.616v9.993h15.616c2.76 0 4.997-2.237 4.997-4.997-.001-2.759-2.238-4.996-4.997-4.996z"/></g><g fill="#c2aacf"><path d="m231.976 362.725h24.024v-9.993h-24.024c-2.76 0-4.997 2.237-4.997 4.997.001 2.759 2.238 4.996 4.997 4.996z"/><path d="m231.976 342.408h24.024v-9.993h-24.024c-2.76 0-4.997 2.237-4.997 4.997.001 2.759 2.238 4.996 4.997 4.996z"/><path d="m231.976 322.091h24.024v-9.993h-24.024c-2.76 0-4.997 2.237-4.997 4.997.001 2.759 2.238 4.996 4.997 4.996z"/><path d="m231.976 383.042h24.024v-9.993h-24.024c-2.76 0-4.997 2.237-4.997 4.997.001 2.759 2.238 4.996 4.997 4.996z"/><path d="m231.976 403.359h24.024v-9.993h-24.024c-2.76 0-4.997 2.237-4.997 4.997.001 2.759 2.238 4.996 4.997 4.996z"/><path d="m240.384 423.676h15.616v-9.993h-15.616c-2.76 0-4.997 2.237-4.997 4.997.001 2.759 2.238 4.996 4.997 4.996z"/><path d="m240.384 301.775h15.616v-9.993h-15.616c-2.76 0-4.997 2.237-4.997 4.997.001 2.758 2.238 4.996 4.997 4.996z"/></g></g></g><g><g><path d="m279.945 217.856v34.75c0 6.617-2.682 12.604-7.012 16.933-4.338 4.33-10.325 7.012-16.933 7.012-13.226 0-23.945-10.72-23.945-23.945v-34.75c0-13.225 10.72-23.945 23.945-23.945s23.945 10.72 23.945 23.945z" fill="#c2aacf"/><path d="m279.945 217.856v34.75c0 6.617-2.682 12.604-7.012 16.933-4.338 4.33-10.325 7.012-16.933 7.012v-82.64c13.225 0 23.945 10.72 23.945 23.945z" fill="#decee5"/></g><g><path d="m256 259.948v-55.432c9.036 0 16.362 7.325 16.362 16.362v22.709c0 9.036-7.326 16.361-16.362 16.361z" fill="#f4e6f4"/><path d="m256 204.516v55.432c-9.036 0-16.362-7.325-16.362-16.362v-22.709c0-9.036 7.326-16.361 16.362-16.361z" fill="#decee5"/></g></g><g><path d="m284.788 168.477v5.372c0 11.082-8.98 20.061-20.061 20.061h-17.455c-11.082 0-20.061-8.98-20.061-20.061v-5.372c0-11.082 8.98-20.07 20.061-20.07h17.455c11.082.001 20.061 8.988 20.061 20.07z" fill="#decee5"/><path d="m284.788 168.477v5.372c0 11.082-8.98 20.061-20.061 20.061h-8.727v-45.503h8.727c11.082.001 20.061 8.988 20.061 20.07z" fill="#f4e6f4"/><g><path d="m288.723 168.216v7.029c0 3.363-1.362 6.398-3.556 8.601-1.026 1.026-2.22 1.867-3.556 2.464-1.53.706-3.245 1.101-5.045 1.101-6.718 0-12.158-5.448-12.158-12.166v-7.029c0-6.718 5.44-12.158 12.158-12.158 1.799 0 3.514.395 5.045 1.101 4.195 1.909 7.112 6.139 7.112 11.057z" fill="#3f5d77"/><path d="m288.723 168.216v7.029c0 3.363-1.362 6.398-3.556 8.601-1.026 1.026-2.22 1.867-3.556 2.464-4.195-1.909-7.113-6.146-7.113-11.065v-7.029c0-4.919 2.918-9.148 7.113-11.057 4.195 1.909 7.112 6.139 7.112 11.057z" fill="#3f6c8e"/></g><g><path d="m223.277 175.253v-7.029c0-3.363 1.362-6.398 3.557-8.601 1.026-1.026 2.22-1.867 3.556-2.464 1.53-.706 3.245-1.101 5.045-1.101 6.718 0 12.158 5.448 12.158 12.166v7.029c0 6.718-5.44 12.158-12.158 12.158-1.799 0-3.514-.395-5.045-1.101-4.196-1.909-7.113-6.138-7.113-11.057z" fill="#3f5d77"/><path d="m223.277 175.253v-7.029c0-3.363 1.362-6.398 3.557-8.601 1.026-1.026 2.22-1.867 3.556-2.464 4.196 1.909 7.113 6.146 7.113 11.065v7.029c0 4.919-2.917 9.148-7.113 11.057-4.196-1.909-7.113-6.138-7.113-11.057z" fill="#3f6c8e"/></g><g><g><path d="m262.01 156.971c-1.494-.567-2.246-2.237-1.679-3.731l18.754-49.443c.567-1.494 2.237-2.246 3.731-1.679 1.494.567 2.246 2.237 1.679 3.731l-18.754 49.443c-.566 1.494-2.237 2.245-3.731 1.679z" fill="#decee5"/><circle cx="282.817" cy="102.118" fill="#f4e6f4" r="6.886"/></g><g><path d="m249.99 156.971c1.494-.567 2.246-2.237 1.679-3.731l-18.754-49.443c-.567-1.494-2.237-2.246-3.731-1.679-1.494.567-2.246 2.237-1.679 3.731l18.754 49.443c.566 1.494 2.237 2.245 3.731 1.679z" fill="#c2aacf"/><circle cx="229.183" cy="102.118" fill="#decee5" r="6.886"/></g></g></g></g><g><g><g><path d="m414.203 317.656v19.195c0 15.145-11.209 27.684-25.789 29.735-1.382.199-2.794.304-4.239.304h-23.026c-18.693 0-35.795-10.54-44.199-27.244l-41.583-82.6c-.921-1.842-1.402-3.873-1.402-5.924 0-3.642 1.476-6.939 3.862-9.315 2.386-2.386 5.683-3.862 9.315-3.862h39.353c7.933 0 15.752 1.235 23.183 3.59 11.597 3.673 22.262 10.089 31.022 18.85l16.704 16.715c10.76 10.759 16.799 25.348 16.799 40.556z" fill="#fbcb74"/><path d="m414.203 317.656v19.195c0 15.145-11.209 27.684-25.789 29.735-24.606-29.944-39.384-68.272-39.384-110.043 0-5.055.22-10.069.649-15.008 11.597 3.673 22.262 10.089 31.022 18.85l16.704 16.715c10.759 10.759 16.798 25.348 16.798 40.556z" fill="#fbd9a3"/><g><path d="m357.166 282.824c-10.873 0-19.687 8.814-19.687 19.687v16.895c0 10.873 8.814 19.687 19.687 19.687 10.873 0 19.687-8.814 19.687-19.687v-16.896c0-10.872-8.814-19.686-19.687-19.686z" fill="#3f6c8e"/><path d="m368.142 335.752c-3.134 2.108-6.918 3.34-10.978 3.34-10.869 0-19.689-8.81-19.689-19.689v-16.89c0-8.78 5.745-16.21 13.678-18.753 2.907 18.467 8.731 35.959 16.989 51.992z" fill="#3f5d77"/></g></g><g><path d="m477.587 160.39-6.761 66.199c-1.832 17.918-12.12 32.686-26.312 41.08-11.607 6.866-25.82 9.462-40.149 6.018l-55.293-13.282-60.37-14.506c-7.431-1.79-12.664-8.426-12.664-16.066 0-3.349 1.015-6.541 2.815-9.21 1.79-2.669 4.364-4.815 7.462-6.081l79.45-32.404 24.345-9.933 66.848-27.264c10.497-4.28 21.78 4.166 20.629 15.449z" fill="#fbd9a3"/><path d="m477.587 160.39-6.761 66.199c-1.832 17.918-12.12 32.686-26.312 41.08-11.607 6.866-25.82 9.462-40.149 6.018l-55.293-13.282c-.031-1.287-.042-2.575-.042-3.862 0-26.626 6.008-51.86 16.736-74.405l24.345-9.933 66.848-27.264c10.496-4.28 21.779 4.166 20.628 15.449z" fill="#faefdc"/><g fill="#3f6c8e"><path d="m477.587 160.39-6.761 66.199c-1.832 17.918-12.12 32.686-26.312 41.08v-65.596c0-16.495-13.372-29.867-29.867-29.867h-24.537l66.848-27.264c10.497-4.281 21.78 4.165 20.629 15.448z"/><path d="m406.056 191.963c-8.807 0-15.946 7.139-15.946 15.946v12.926c0 8.807 7.139 15.946 15.946 15.946 8.807 0 15.946-7.139 15.946-15.946v-12.925c0-8.807-7.139-15.947-15.946-15.947z"/></g></g></g><g><g><path d="m97.797 317.656v19.195c0 15.145 11.209 27.684 25.789 29.735 1.381.199 2.794.304 4.239.304h23.026c18.693 0 35.795-10.54 44.199-27.244l41.583-82.6c.921-1.842 1.402-3.873 1.402-5.924 0-3.642-1.476-6.939-3.862-9.315-2.386-2.386-5.683-3.862-9.315-3.862h-39.353c-7.933 0-15.752 1.235-23.183 3.59-11.597 3.673-22.262 10.089-31.022 18.85l-16.704 16.715c-10.76 10.759-16.799 25.348-16.799 40.556z" fill="#f9c744"/><path d="m97.797 317.656v19.195c0 15.145 11.209 27.684 25.789 29.735 24.606-29.944 39.384-68.272 39.384-110.043 0-5.055-.22-10.069-.649-15.008-11.597 3.673-22.262 10.089-31.022 18.85l-16.704 16.715c-10.759 10.759-16.798 25.348-16.798 40.556z" fill="#fbcb74"/><g><path d="m154.837 282.824c10.873 0 19.687 8.814 19.687 19.687v16.895c0 10.873-8.814 19.687-19.687 19.687-10.873 0-19.687-8.814-19.687-19.687v-16.896c.001-10.872 8.815-19.686 19.687-19.686z" fill="#3f6c8e"/><path d="m143.861 335.752c3.134 2.108 6.918 3.34 10.978 3.34 10.869 0 19.689-8.81 19.689-19.689v-16.89c0-8.78-5.745-16.21-13.678-18.753-2.907 18.467-8.731 35.959-16.989 51.992z" fill="#3f5d77"/></g></g><g><path d="m34.413 160.39 6.761 66.199c1.832 17.918 12.12 32.686 26.312 41.08 11.607 6.866 25.82 9.462 40.149 6.018l55.293-13.282 60.37-14.506c7.431-1.79 12.664-8.426 12.664-16.066 0-3.349-1.015-6.541-2.815-9.21-1.79-2.669-4.364-4.815-7.462-6.081l-79.45-32.404-24.345-9.933-66.848-27.264c-10.497-4.28-21.78 4.166-20.629 15.449z" fill="#fbcb74"/><path d="m34.413 160.39 6.761 66.199c1.832 17.918 12.12 32.686 26.312 41.08 11.607 6.866 25.82 9.462 40.149 6.018l55.293-13.282c.031-1.287.042-2.575.042-3.862 0-26.626-6.008-51.86-16.736-74.405l-24.345-9.933-66.848-27.264c-10.496-4.28-21.779 4.166-20.628 15.449z" fill="#fbd9a3"/><g fill="#3f5d77"><path d="m34.413 160.39 6.761 66.199c1.832 17.918 12.12 32.686 26.312 41.08v-65.596c0-16.495 13.372-29.867 29.867-29.867h24.537l-66.848-27.264c-10.497-4.281-21.78 4.165-20.629 15.448z"/><path d="m105.944 191.963c8.807 0 15.946 7.139 15.946 15.946v12.926c0 8.807-7.139 15.946-15.946 15.946-8.807 0-15.946-7.139-15.946-15.946v-12.925c0-8.807 7.139-15.947 15.946-15.947z"/></g></g></g></g></g></g></svg>