<svg id="Icons" enable-background="new 0 0 512 512" height="512" viewBox="0 0 512 512" width="512" xmlns="http://www.w3.org/2000/svg"><g><circle cx="256" cy="256" fill="#22bce0" r="256"/><g><g><g><g><g><path d="m464.474 126.126 1.752 8.366c5.584 26.664-11.508 52.81-38.172 58.393l-77.918 16.317c-14.002 2.932-27.724-6.038-30.655-20.032-1.278-6.102-.29-12.218 2.447-17.405 2.745-5.189 7.249-9.452 12.997-11.837l53.06-21.947 55.491-22.952c8.933-3.694 19.018 1.641 20.998 11.097z" fill="#f39e22"/><path d="m464.474 126.126 1.752 8.366c5.584 26.664-11.508 52.81-38.172 58.393l-2.348.492c-18.35-10.695-32.279-28.825-36.975-51.251-.289-1.382-.544-2.762-.746-4.145l55.491-22.952c8.933-3.694 19.018 1.641 20.998 11.097z" fill="#dd5e26"/><path d="m450.11 161.804h-4.57c-3.774 0-7.018-2.675-7.736-6.38l-3.901-20.117c-.861-4.438 2.182-8.689 6.66-9.306l8.471-1.167c4.735-.652 8.956 3.027 8.956 7.806v21.285c0 4.351-3.528 7.879-7.88 7.879z" fill="#ea792e"/><path d="m419.41 181.028-64.41 19.952-2.8.864c-.562.179-1.123.322-1.689.441-9.149 1.916-18.426-3.423-21.246-12.531-2.99-9.671 2.421-19.937 12.09-22.935l65.063-20.151 2.137-.665c.562-.179 1.123-.322 1.689-.441 9.149-1.916 18.425 3.415 21.246 12.531 2.999 9.671-2.411 19.936-12.08 22.935z" fill="#fbcb74"/><path d="m419.41 181.028-64.41 19.952c6.874-22.903 25.701-43.13 51.418-54.311l2.137-.665c.562-.179 1.123-.322 1.689-.441 9.149-1.916 18.425 3.415 21.246 12.531 2.999 9.67-2.411 19.935-12.08 22.934z" fill="#fbd9a3"/></g><g><path d="m47.526 126.126-1.752 8.366c-5.584 26.664 11.508 52.81 38.172 58.393l77.918 16.317c14.002 2.932 27.724-6.038 30.655-20.032 1.278-6.102.29-12.218-2.447-17.405-2.745-5.189-7.249-9.452-12.997-11.837l-53.06-21.947-55.491-22.951c-8.933-3.695-19.018 1.64-20.998 11.096z" fill="#ea792e"/><path d="m47.526 126.126-1.752 8.366c-5.584 26.664 11.508 52.81 38.172 58.393l2.348.492c18.35-10.695 32.279-28.825 36.975-51.251.289-1.382.544-2.762.746-4.145l-55.491-22.951c-8.933-3.695-19.018 1.64-20.998 11.096z" fill="#bf5e39"/><path d="m61.89 161.804h4.57c3.774 0 7.018-2.675 7.736-6.38l3.901-20.117c.861-4.438-2.182-8.689-6.66-9.306l-8.471-1.167c-4.735-.652-8.956 3.027-8.956 7.806v21.285c0 4.351 3.528 7.879 7.88 7.879z" fill="#dd5e26"/><path d="m92.59 181.028 64.41 19.952 2.8.864c.562.179 1.123.322 1.689.441 9.149 1.916 18.426-3.423 21.246-12.531 2.99-9.671-2.421-19.937-12.09-22.935l-65.063-20.151-2.137-.665c-.562-.179-1.123-.322-1.689-.441-9.149-1.916-18.425 3.415-21.246 12.531-2.999 9.671 2.411 19.936 12.08 22.935z" fill="#f9c744"/><path d="m92.59 181.028 64.41 19.952c-6.874-22.903-25.701-43.13-51.418-54.311l-2.137-.665c-.562-.179-1.123-.322-1.689-.441-9.149-1.916-18.425 3.415-21.246 12.531-2.999 9.67 2.411 19.935 12.08 22.934z" fill="#fbcb74"/></g></g><g><path d="m357.834 239.249-14.07 97.996c-3.136 21.828-14.05 40.849-29.688 54.414-15.649 13.555-36.021 21.662-58.076 21.662-35.681 0-66.988-21.229-80.945-52.464-3.291-7.365-5.622-15.288-6.819-23.612l-.392-2.733-1.97-13.689-3.775-26.346-7.932-55.229c-3.848-26.83 1.816-54.166 16.01-77.262l22.147-36.011c4.632-7.54 12.853-12.131 21.693-12.131h83.967c8.84 0 17.062 4.59 21.693 12.131l22.147 36.011c14.194 23.097 19.857 50.433 16.01 77.263z" fill="#f39e22"/><path d="m357.834 239.249-7.932 55.229-3.775 26.346-1.97 13.689-.392 2.733c-1.197 8.325-3.528 16.247-6.819 23.612-5.333 11.935-13.204 22.415-22.869 30.802-8.325 7.21-17.99 12.884-28.532 16.618-9.274 3.27-19.228 5.044-29.543 5.044v-299.477h41.984c8.84 0 17.062 4.59 21.693 12.131l22.147 36.011c7.314 11.894 12.358 24.922 15.009 38.425 2.494 12.698 2.866 25.83.999 38.837z" fill="#f9c744"/></g></g><g><g><path d="m300.425 15.563c12.421 0 21.712 11.402 19.204 23.567l-4.974 24.125c-.413 2.003-.51 4.059-.287 6.093l7.74 70.717c1.27 11.604-7.818 21.741-19.491 21.741h-4.383c-11.673 0-20.761-10.137-19.491-21.741l7.74-70.717c.223-2.033.126-4.089-.287-6.093l-4.974-24.125c-2.508-12.165 6.783-23.567 19.203-23.567z" fill="#dd5e26"/><g fill="#ea792e"><path d="m313.132 37.176c0-7.018-5.689-12.707-12.707-12.707s-12.707 5.689-12.707 12.707 5.689 23.598 12.707 23.598c7.018.001 12.707-16.58 12.707-23.598z"/><path d="m300.425 80.672c-3.089 0-5.657 2.377-5.897 5.456l-3.91 50.301c-.444 5.715 4.074 10.598 9.806 10.598 5.733 0 10.251-4.883 9.806-10.598l-3.91-50.301c-.237-3.079-2.806-5.456-5.895-5.456z"/></g></g><g><path d="m211.575 15.563c12.421 0 21.712 11.402 19.203 23.567l-4.974 24.125c-.413 2.003-.51 4.059-.287 6.093l7.74 70.717c1.27 11.604-7.818 21.741-19.491 21.741h-4.383c-11.673 0-20.761-10.137-19.491-21.741l7.74-70.717c.223-2.033.126-4.089-.287-6.093l-4.974-24.125c-2.508-12.165 6.783-23.567 19.204-23.567z" fill="#bf5e39"/><g fill="#dd5e26"><path d="m224.281 37.176c0-7.018-5.689-12.707-12.707-12.707s-12.707 5.689-12.707 12.707 5.689 23.598 12.707 23.598c7.018.001 12.707-16.58 12.707-23.598z"/><path d="m211.575 80.672c-3.089 0-5.657 2.377-5.897 5.456l-3.91 50.301c-.444 5.715 4.074 10.598 9.806 10.598 5.733 0 10.251-4.883 9.806-10.598l-3.91-50.301c-.238-3.079-2.807-5.456-5.895-5.456z"/></g></g></g><g><path d="m357.834 239.249-7.932 55.229-3.775 26.346-1.97 13.689-.392 2.733c-1.197 8.325-3.528 16.247-6.819 23.612-5.333 11.935-13.204 22.415-22.869 30.802-8.325 7.21-17.99 12.884-28.532 16.618v-133.048c0-64.048 71.29-74.818 71.29-74.818 2.494 12.698 2.866 25.83.999 38.837z" fill="#fbd9a3"/><g fill="#dd5e26"><path d="m349.901 294.478-3.775 26.346h-26.129c-3.219 0-5.828-2.62-5.828-5.838v-14.679c0-3.218 2.61-5.828 5.828-5.828h29.904z"/><path d="m344.155 334.512-.392 2.733c-1.197 8.325-3.528 16.247-6.819 23.612h-26.334c-3.218 0-5.828-2.61-5.828-5.828v-14.679c0-3.218 2.61-5.838 5.828-5.838z"/></g></g><g><path d="m154.165 239.249 7.932 55.229 3.775 26.346 1.97 13.689.392 2.733c1.197 8.325 3.528 16.247 6.819 23.612 5.333 11.935 13.204 22.415 22.869 30.802 8.325 7.21 17.99 12.884 28.532 16.618v-133.048c0-64.048-71.29-74.818-71.29-74.818-2.495 12.698-2.866 25.83-.999 38.837z" fill="#fbcb74"/><g fill="#bf5e39"><path d="m197.831 300.306v14.679c0 3.218-2.61 5.838-5.828 5.838h-26.129l-3.775-26.346h29.904c3.219.001 5.828 2.611 5.828 5.829z"/><path d="m207.218 340.351v14.679c0 3.219-2.61 5.828-5.828 5.828h-26.335c-3.291-7.365-5.622-15.288-6.819-23.612l-.392-2.733h33.546c3.219-.001 5.828 2.62 5.828 5.838z"/></g></g><g><path d="m322.225 426.753v15.607c0 27.15-22.003 49.142-49.143 49.142h-34.165c-27.14 0-49.142-21.992-49.142-49.142v-15.607c0-14.968 6.695-28.357 17.237-37.373 8.892-7.582 14.504-18.289 15.112-29.956l4.364-84.782c.815-15.71 13.781-28.037 29.512-28.027.382 0 .743.01 1.124.021 15.391.567 27.625 13.214 28.419 28.594l4.333 84.194c.608 11.667 6.22 22.374 15.112 29.956 10.542 9.016 17.237 22.405 17.237 37.373z" fill="#ea792e"/><path d="m322.225 426.753v15.607c0 27.15-22.003 49.142-49.143 49.142h-17.082v-244.887c.382 0 .743.01 1.124.021 15.391.567 27.625 13.214 28.419 28.594l4.333 84.194c.608 11.667 6.22 22.374 15.112 29.956 10.542 9.016 17.237 22.405 17.237 37.373z" fill="#f39e22"/><g><path d="m284.509 450.587c-5.985 0-10.837-4.852-10.837-10.837v-24.342c0-5.985 4.852-10.837 10.837-10.837h4.911c6.846 0 11.977 6.269 10.623 12.98l-4.911 24.342c-1.02 5.057-5.464 8.694-10.623 8.694z" fill="#3e4e60"/><path d="m227.491 450.587c5.985 0 10.837-4.852 10.837-10.837v-24.342c0-5.985-4.852-10.837-10.837-10.837h-4.911c-6.846 0-11.977 6.269-10.623 12.98l4.911 24.342c1.02 5.057 5.464 8.694 10.623 8.694z" fill="#2e3140"/></g><g><path d="m293.316 476.427h-74.632c-18.784 0-34.067-15.282-34.067-34.067 0-2.848 2.309-5.158 5.158-5.158s5.158 2.309 5.158 5.158c0 13.096 10.655 23.751 23.752 23.751h74.632c13.097 0 23.752-10.655 23.752-23.751 0-2.848 2.309-5.158 5.158-5.158s5.158 2.309 5.158 5.158c-.002 18.784-15.285 34.067-34.069 34.067z" fill="#bf5e39"/></g></g><g><path d="m357.293 254.129c2.626 9.799-3.113 19.86-12.851 22.602-.079.036-.162.058-.244.08l-12.445 3.335c-4.934 1.322-9.949.524-14.055-1.847-4.12-2.367-7.315-6.297-8.641-11.245-2.463-9.193 2.438-18.63 11.085-22.026.653-.264 1.331-.49 2.02-.674l12.445-3.335c4.948-1.326 9.952-.51 14.059 1.861s7.301 6.301 8.627 11.249z" fill="#3e4e60"/><path d="m357.293 254.129c2.626 9.799-3.113 19.86-12.851 22.602-10.719-3.288-19.802-12.435-23.122-24.825-.617-2.302-1.012-4.603-1.178-6.878.653-.264 1.331-.49 2.02-.674l12.445-3.335c4.948-1.326 9.952-.51 14.059 1.861s7.301 6.301 8.627 11.249z" fill="#2e3140"/><path d="m340.597 248.07-7.488 2.006c-3.224.864-5.138 4.178-4.274 7.402.864 3.224 4.178 5.138 7.402 4.274l7.488-2.006c3.224-.864 5.138-4.178 4.274-7.402-.863-3.224-4.177-5.138-7.402-4.274z" fill="#fff"/><path d="m202.945 267.054c-2.626 9.799-12.626 15.643-22.431 13.148-.086-.008-.169-.031-.252-.053l-12.445-3.335c-4.934-1.322-8.878-4.521-11.249-8.627-2.385-4.11-3.187-9.111-1.861-14.059 2.463-9.193 11.427-14.915 20.613-13.532.698.098 1.398.242 2.087.426l12.445 3.335c4.948 1.326 8.874 4.534 11.245 8.641 2.372 4.107 3.173 9.108 1.848 14.056z" fill="#3e4e60"/><path d="m202.945 267.054c-2.626 9.799-12.626 15.643-22.431 13.148-7.639-8.206-10.932-20.67-7.612-33.06.617-2.302 1.425-4.493 2.419-6.546.698.098 1.398.242 2.087.426l12.445 3.335c4.948 1.326 8.874 4.534 11.245 8.641s3.172 9.108 1.847 14.056z" fill="#2e3140"/><path d="m191.515 253.459-7.488-2.006c-3.224-.864-6.539 1.049-7.402 4.274-.864 3.224 1.049 6.538 4.274 7.402l7.488 2.006c3.224.864 6.539-1.049 7.402-4.274.863-3.224-1.05-6.538-4.274-7.402z" fill="#fff"/></g></g><path d="m256 338.387h4.034c8.008 0 14.981 5.468 16.89 13.245l7.78 31.685c1.573 6.406-1.718 13.019-7.792 15.592-4.974 2.107-11.882 3.924-20.912 3.924z" fill="#f9c744"/><path d="m256 338.387h-4.034c-8.008 0-14.981 5.468-16.89 13.245l-7.78 31.685c-1.573 6.406 1.718 13.019 7.792 15.592 4.974 2.107 11.882 3.924 20.912 3.924z" fill="#f39e22"/></g></g></svg>