<svg id="Icons" enable-background="new 0 0 512 512" height="512" viewBox="0 0 512 512" width="512" xmlns="http://www.w3.org/2000/svg"><g><circle cx="256" cy="256" fill="#22bce0" r="256"/><g><g><path d="m413.748 236.735v106.357c0 57.759-46.818 104.566-104.567 104.566h-106.367c-57.749 0-104.567-46.807-104.567-104.566v-106.357c0-57.749 46.818-104.567 104.567-104.567h106.367c57.75 0 104.567 46.818 104.567 104.567z" fill="#c17e62"/><path d="m413.748 236.735v106.357c0 57.759-46.818 104.566-104.567 104.566h-53.184v-315.49h53.184c57.75 0 104.567 46.818 104.567 104.567z" fill="#d48d77"/></g><g><g><path d="m410.599 210.886-75.179-75.179 35.803-35.803c15.357-15.357 40.255-15.357 55.612 0l19.567 19.567c15.357 15.357 15.357 40.255 0 55.612z" fill="#d48d77"/><path d="m385.195 185.481-24.371-24.371c-6.586-6.586-6.586-17.264 0-23.851l12.914-12.914c9.26-9.26 24.272-9.26 33.532 0l14.689 14.689c9.26 9.26 9.26 24.272 0 33.532l-12.914 12.914c-6.585 6.588-17.264 6.588-23.85.001z" fill="#c17e62"/><path d="m445.67 133.385-32.749-32.749c-4.054-4.054-10.626-4.054-14.68 0-4.054 4.054-4.054 10.626 0 14.68l32.749 32.749c4.054 4.054 10.626 4.054 14.68 0 4.054-4.054 4.054-10.626 0-14.68z" fill="#eea47d"/></g><g><path d="m176.647 135.707-75.179 75.179-35.803-35.803c-15.357-15.357-15.357-40.255 0-55.612l19.567-19.567c15.357-15.357 40.255-15.357 55.612 0z" fill="#c17e62"/><path d="m151.243 161.111-24.371 24.371c-6.586 6.586-17.264 6.586-23.851 0l-12.914-12.914c-9.26-9.26-9.26-24.272 0-33.532l14.689-14.689c9.26-9.26 24.272-9.26 33.532 0l12.914 12.914c6.587 6.585 6.587 17.264.001 23.85z" fill="#a26d5a"/><path d="m99.147 100.636-32.749 32.749c-4.054 4.054-4.054 10.626 0 14.68 4.054 4.054 10.626 4.054 14.68 0l32.749-32.749c4.054-4.054 4.054-10.626 0-14.68-4.054-4.054-10.627-4.054-14.68 0z" fill="#d48d77"/></g></g><g><g><path d="m355.539 289.396c-9.881 9.881-25.931 9.881-35.812 0-9.894-9.894-9.881-25.931 0-35.812 2.679-2.679 5.807-4.635 9.146-5.856 8.984-3.302 19.451-1.358 26.666 5.856 7.202 7.202 9.159 17.682 5.856 26.666-1.22 3.339-3.177 6.467-5.856 9.146z" fill="#c17e62"/><path d="m355.311 271.49c0 7.613-4.828 14.115-11.584 16.607-1.908.681-3.952 1.071-6.094 1.071-9.773 0-17.678-7.924-17.678-17.678 0-9.774 7.905-17.678 17.678-17.678 2.142 0 4.186.389 6.094 1.071 6.756 2.491 11.584 8.975 11.584 16.607z" fill="#dd5e26"/><path d="m349.248 271.49c0 5.002-3.172 9.274-7.611 10.912-1.254.448-2.597.704-4.004.704-6.422 0-11.615-5.206-11.615-11.615 0-6.422 5.194-11.615 11.615-11.615 1.407 0 2.75.256 4.004.704 4.439 1.635 7.611 5.895 7.611 10.91z" fill="#2e3140"/><path d="m349.248 265.917c0 2.602-1.65 4.825-3.96 5.677-.652.233-1.351.366-2.083.366-3.341 0-6.043-2.709-6.043-6.043 0-3.341 2.702-6.043 6.043-6.043.732 0 1.431.133 2.083.366 2.31.852 3.96 3.069 3.96 5.677z" fill="#fff"/></g><g><path d="m156.457 289.396c9.881 9.881 25.931 9.881 35.812 0 9.894-9.894 9.881-25.931 0-35.812-2.679-2.679-5.807-4.635-9.146-5.856-8.984-3.302-19.451-1.358-26.666 5.856-7.202 7.202-9.159 17.682-5.856 26.666 1.22 3.339 3.177 6.467 5.856 9.146z" fill="#a26d5a"/><path d="m192.044 271.49c0 7.613-4.828 14.115-11.584 16.607-1.908.681-3.952 1.071-6.094 1.071-9.773 0-17.678-7.924-17.678-17.678 0-9.774 7.905-17.678 17.678-17.678 2.142 0 4.186.389 6.094 1.071 6.756 2.491 11.584 8.975 11.584 16.607z" fill="#dd5e26"/><path d="m185.982 271.49c0 5.002-3.172 9.274-7.611 10.912-1.254.448-2.597.704-4.004.704-6.421 0-11.615-5.206-11.615-11.615 0-6.422 5.194-11.615 11.615-11.615 1.407 0 2.75.256 4.004.704 4.438 1.635 7.611 5.895 7.611 10.91z" fill="#2e3140"/><path d="m185.982 265.917c0 2.602-1.65 4.825-3.96 5.677-.652.233-1.351.366-2.083.366-3.341 0-6.043-2.709-6.043-6.043 0-3.341 2.702-6.043 6.043-6.043.732 0 1.431.133 2.083.366 2.309.852 3.96 3.069 3.96 5.677z" fill="#fff"/></g></g><g><g><path d="m320.547 386.445c0 17.181-11.122 32.762-27.942 38.058-11.906 3.76-24.256 5.635-36.607 5.635s-24.701-1.875-36.607-5.635c-18.727-5.9-30.389-24.532-27.508-43.947l11.609-78.213c2.627-17.731 17.848-30.855 35.77-30.855h33.471c17.922 0 33.143 13.124 35.77 30.855l11.609 78.213c.297 1.97.435 3.94.435 5.889z" fill="#d48d77"/><path d="m320.547 386.445c0 17.181-11.122 32.762-27.942 38.058-11.906 3.76-24.256 5.635-36.607 5.635v-158.65h16.736c17.922 0 33.143 13.124 35.77 30.855l11.609 78.213c.296 1.97.434 3.94.434 5.889z" fill="#eea47d"/></g><g><path d="m271.242 283.105h-15.244v58.874h15.244c10.907 0 19.749-8.842 19.749-19.749v-19.377c0-10.906-8.842-19.748-19.749-19.748z" fill="#f5b890"/><path d="m240.753 341.979h15.244v-58.874h-15.244c-10.907 0-19.749 8.842-19.749 19.749v19.377c0 10.906 8.842 19.748 19.749 19.748z" fill="#eea47d"/></g><g><g><path d="m288.273 366.104v7.847c0 13.323-9.025 24.138-20.157 24.138h-24.236c-11.132 0-20.157-10.814-20.157-24.138v-7.847c0-13.324 9.025-24.125 20.157-24.125h24.235c11.133 0 20.158 10.801 20.158 24.125z" fill="#2e3140"/><path d="m288.273 366.104v7.847c0 13.323-9.025 24.138-20.157 24.138h-12.118v-56.11h12.118c11.132 0 20.157 10.801 20.157 24.125z" fill="#334353"/><g><g><path d="m264.724 373.351-2.685 2.685c-2.509 2.509-2.509 6.578 0 9.087l5.739 5.739c2.509 2.509 6.578 2.509 9.087 0l2.685-2.685c2.509-2.509 2.509-6.578 0-9.087l-5.739-5.739c-2.509-2.51-6.577-2.51-9.087 0z" fill="#2e3140"/><path d="m249.957 376.036-2.685-2.685c-2.509-2.509-6.578-2.509-9.087 0l-5.739 5.739c-2.509 2.509-2.509 6.578 0 9.087l2.685 2.685c2.509 2.509 6.578 2.509 9.087 0l5.739-5.739c2.509-2.509 2.509-6.578 0-9.087z" fill="#151516"/></g><path d="m255.998 350.813h13.794c4.413 0 7.991 3.578 7.991 7.991 0 4.413-3.578 7.991-7.991 7.991h-13.794z" fill="#3f5d77"/><path d="m255.998 366.795h-13.794c-4.413 0-7.991-3.578-7.991-7.991 0-4.413 3.578-7.991 7.991-7.991h13.794z" fill="#334353"/></g></g><path d="m307.436 412.774c-1.108-2.707-4.2-4.004-6.908-2.895-3.778 1.546-8.935 3.36-10.292 3.49-4.157.362-11.554-.858-18.08-1.934-3.847-.635-7.556-1.245-10.862-1.61v-14.564c0-2.925-2.371-5.296-5.296-5.296s-5.296 2.371-5.296 5.296v14.564c-3.306.364-7.015.975-10.862 1.61-6.525 1.076-13.921 2.298-18.079 1.934-1.225-.117-6.035-1.748-10.293-3.49-2.703-1.106-5.798.189-6.907 2.896-1.107 2.707.188 5.799 2.895 6.907 2.237.916 9.815 3.928 13.384 4.239 5.49.477 13.233-.8 20.724-2.036 5.391-.889 10.966-1.809 14.435-1.809 3.468 0 9.043.92 14.435 1.809 6.389 1.054 12.963 2.139 18.163 2.139.897 0 1.754-.033 2.561-.103 3.569-.311 11.147-3.323 13.385-4.239 2.705-1.108 4.001-4.201 2.893-6.908z" fill="#151516"/></g></g><g><path d="m337.139 325.466v58.897c0 10.38 12.55 15.579 19.89 8.239l17.113-17.113c11.352-11.352 17.729-26.748 17.729-42.801v-19.048c0-8.141-8.135-13.772-15.755-10.905l-31.429 11.826c-4.541 1.708-7.548 6.053-7.548 10.905z" fill="#eea47d"/><path d="m174.857 325.466v58.897c0 10.38-12.55 15.579-19.89 8.239l-17.113-17.113c-11.352-11.352-17.729-26.748-17.729-42.801v-19.048c0-8.141 8.136-13.772 15.755-10.905l31.429 11.826c4.541 1.708 7.548 6.053 7.548 10.905z" fill="#d48d77"/></g><g><path d="m308.181 229.871h-52.183v-83.987h43.164c12.539 0 23.793 7.692 28.348 19.374l9.02 23.132c7.778 19.95-6.936 41.481-28.349 41.481z" fill="#eea47d"/><path d="m203.814 229.871h52.183v-83.987h-43.164c-12.539 0-23.793 7.692-28.348 19.374l-9.02 23.132c-7.778 19.95 6.936 41.481 28.349 41.481z" fill="#d48d77"/></g></g></g></svg>