<svg id="Icons" enable-background="new 0 0 512 512" height="512" viewBox="0 0 512 512" width="512" xmlns="http://www.w3.org/2000/svg"><g><circle cx="256" cy="256" fill="#22bce0" r="256"/><path d="m512 256c0 107.54-66.31 199.59-160.28 237.5-164.56-44.58-285.61-194.96-285.61-373.63 0-12.66.61-25.19 1.8-37.54 46.78-50.63 113.73-82.33 188.09-82.33 141.38 0 256 114.62 256 256z" fill="#4fcae8"/><g><g><g><g><path d="m149.35 242.897-18.39 26.685-12.948-1.382-31.406-3.349c-8.84-.944-16.92-4.576-23.336-10.105-7.068-6.065-12.14-14.428-14.058-24.036l-7.34-36.79c-1.334-6.669 5.87-11.76 11.712-8.265l7.087 4.235 30.978 18.517z" fill="#f9c744"/><path d="m63.27 254.745c-7.068-6.065-12.14-14.428-14.058-24.036l-7.34-36.79c-1.334-6.669 5.87-11.76 11.712-8.265l7.087 4.235 7.681 32.983c2.599 11.147.574 22.537-5.082 31.873z" fill="#fbd9a3"/><path d="m149.35 242.897-18.39 26.685-12.948-1.382c-10.183-6.046-17.67-16.219-20.094-28.378l-6.27-31.416z" fill="#f39e22"/></g><g><path d="m138.447 252.856c-.515 0-1.038-.117-1.529-.365l-54.761-27.567c-1.681-.846-2.358-2.894-1.511-4.575.845-1.681 2.892-2.359 4.575-1.511l54.761 27.567c1.681.846 2.358 2.894 1.511 4.575-.598 1.189-1.799 1.876-3.046 1.876z" fill="#fbd9a3"/></g><g><path d="m134.711 264.926c-.378 0-.762-.063-1.138-.197l-51.022-18.082c-1.774-.628-2.702-2.576-2.074-4.35.628-1.775 2.578-2.705 4.35-2.074l51.022 18.082c1.774.628 2.702 2.576 2.074 4.35-.496 1.398-1.81 2.271-3.212 2.271z" fill="#fbd9a3"/></g></g><g><g><path d="m149.346 302.98-18.39-26.685-12.948 1.382-31.406 3.349c-8.84.944-16.92 4.576-23.336 10.105-7.068 6.065-12.14 14.428-14.058 24.036l-7.34 36.79c-1.334 6.669 5.87 11.76 11.712 8.265l7.087-4.235 30.978-18.517z" fill="#f9c744"/><path d="m63.267 291.132c-7.068 6.065-12.14 14.428-14.058 24.036l-7.34 36.79c-1.334 6.669 5.87 11.76 11.712 8.265l7.087-4.235 7.681-32.983c2.599-11.146.574-22.537-5.082-31.873z" fill="#fbd9a3"/><path d="m149.346 302.98-18.39-26.685-12.948 1.382c-10.183 6.046-17.67 16.219-20.094 28.378l-6.27 31.416z" fill="#f39e22"/></g><g><path d="m138.444 293.022c-.515 0-1.038.117-1.529.365l-54.761 27.567c-1.681.846-2.358 2.894-1.511 4.575.845 1.681 2.892 2.359 4.575 1.511l54.761-27.567c1.681-.846 2.358-2.894 1.511-4.575-.599-1.189-1.799-1.876-3.046-1.876z" fill="#fbd9a3"/></g><g><path d="m134.708 280.951c-.378 0-.762.063-1.138.197l-51.022 18.082c-1.774.628-2.702 2.576-2.074 4.35.628 1.775 2.578 2.705 4.35 2.074l51.022-18.082c1.774-.628 2.702-2.576 2.074-4.35-.496-1.398-1.81-2.271-3.212-2.271z" fill="#fbd9a3"/></g></g><g><g><path d="m322.327 220.204-127.99 28.135-10.115-34.424c-1.256-4.254-1.412-8.606-.604-12.724 1.558-8.002 6.727-15.138 14.447-18.974l69.939-34.745c6.756-3.359 14.136-3.592 20.639-1.373 7.934 2.697 14.564 9.064 17.163 17.894z" fill="#f9c744"/></g><g><path d="m288.643 146.099c-1.558 8.012-6.727 15.148-14.447 18.974l-69.948 34.745c-6.756 3.359-14.136 3.592-20.629 1.373 1.558-8.002 6.727-15.138 14.447-18.974l69.939-34.745c6.755-3.359 14.134-3.593 20.638-1.373z" fill="#fbd9a3"/></g><g><path d="m207.451 214.143 69.94-34.742c14.994-7.448 33.077.453 37.798 16.515l16.526 56.218-127.994 28.133-10.12-34.427c-3.681-12.527 2.157-25.889 13.85-31.697z" fill="#f39e22"/></g><g><g><path d="m207.306 256.522c-1.473 0-2.831-.963-3.268-2.448l-11.179-38.045c-.531-1.805.503-3.699 2.308-4.23 1.808-.53 3.699.502 4.23 2.308l11.179 38.045c.53 1.805-.503 3.699-2.308 4.23-.32.095-.644.14-.962.14z" fill="#fbd9a3"/></g><g><path d="m221.326 249.174c-1.473 0-2.831-.963-3.267-2.448l-11.178-38.045c-.531-1.805.503-3.699 2.308-4.23 1.806-.531 3.699.502 4.23 2.308l11.179 38.045c.531 1.805-.504 3.699-2.309 4.23-.322.095-.645.14-.963.14z" fill="#fbd9a3"/></g><g><path d="m235.346 242.516c-1.473 0-2.831-.963-3.268-2.448l-11.178-38.045c-.53-1.806.504-3.699 2.309-4.23 1.801-.529 3.698.502 4.23 2.308l11.178 38.045c.531 1.806-.504 3.699-2.309 4.23-.321.095-.644.14-.962.14z" fill="#fbd9a3"/></g><g><path d="m249.366 235.083c-1.473 0-2.831-.963-3.268-2.448l-11.178-38.045c-.53-1.805.504-3.699 2.309-4.23 1.803-.528 3.699.502 4.23 2.308l11.178 38.045c.531 1.805-.504 3.699-2.309 4.23-.32.095-.644.14-.962.14z" fill="#fbd9a3"/></g><g><path d="m263.386 228.613c-1.473 0-2.831-.963-3.268-2.448l-11.178-38.045c-.53-1.806.504-3.699 2.309-4.23 1.802-.53 3.699.502 4.23 2.308l11.179 38.045c.53 1.806-.504 3.699-2.309 4.23-.321.095-.644.14-.963.14z" fill="#fbd9a3"/></g><g><path d="m280.45 231.83c-1.473 0-2.831-.963-3.268-2.448l-14.223-48.404c-.531-1.805.504-3.699 2.309-4.23 1.803-.529 3.699.502 4.23 2.308l14.223 48.404c.531 1.805-.504 3.699-2.309 4.23-.32.095-.643.14-.962.14z" fill="#fbd9a3"/></g><g><path d="m295.898 230.151c-1.473 0-2.831-.963-3.268-2.448l-15.65-53.262c-.53-1.805.504-3.699 2.309-4.23 1.802-.529 3.699.502 4.23 2.308l15.65 53.262c.531 1.805-.504 3.699-2.309 4.23-.321.095-.644.14-.962.14z" fill="#fbd9a3"/></g><g><path d="m312.516 231.83c-1.473 0-2.831-.963-3.268-2.448l-18.248-62.102c-.531-1.805.503-3.699 2.309-4.23 1.804-.529 3.699.502 4.23 2.308l18.248 62.102c.53 1.805-.503 3.699-2.309 4.23-.32.095-.643.14-.962.14z" fill="#fbd9a3"/></g></g></g><g><g><path d="m250.567 338.174-64.91-35.094-10.818 17.063c-1.34 2.108-2.1 4.439-2.302 6.793-.399 4.573 1.291 9.238 4.875 12.512l32.463 29.662c3.136 2.867 7.094 4.138 10.958 3.946 4.713-.228 9.29-2.645 12.067-7.021z" fill="#f9c744"/></g><g><path d="m220.833 373.057c.4-4.578-1.29-9.243-4.875-12.513l-32.468-29.663c-3.136-2.867-7.094-4.138-10.953-3.945-.399 4.573 1.291 9.238 4.875 12.512l32.463 29.662c3.136 2.867 7.094 4.139 10.958 3.947z" fill="#fbd9a3"/></g><g><path d="m187.448 323.625 32.464 29.661c6.96 6.359 17.974 4.889 23.022-3.072l17.671-27.864-64.912-35.094-10.821 17.063c-3.938 6.208-2.852 14.347 2.576 19.306z" fill="#f39e22"/></g><g><g><path d="m185.424 327.278c-.624 0-1.255-.171-1.821-.53-1.59-1.008-2.061-3.113-1.053-4.702l19.909-31.401c1.007-1.59 3.112-2.062 4.702-1.053 1.59 1.008 2.061 3.113 1.053 4.702l-19.909 31.401c-.649 1.023-1.753 1.583-2.881 1.583z" fill="#fbd9a3"/></g><g><path d="m198.427 339.211c-.624 0-1.255-.171-1.821-.53-1.59-1.008-2.061-3.113-1.053-4.702l18.842-29.719c1.007-1.59 3.111-2.062 4.702-1.053 1.59 1.008 2.061 3.113 1.053 4.702l-18.842 29.719c-.649 1.023-1.753 1.583-2.881 1.583z" fill="#fbd9a3"/></g><g><path d="m211.447 351.088c-.624 0-1.255-.171-1.821-.53-1.59-1.008-2.061-3.113-1.053-4.702l18.441-29.086c1.009-1.591 3.115-2.06 4.702-1.053 1.59 1.008 2.061 3.113 1.053 4.702l-18.441 29.086c-.649 1.023-1.753 1.583-2.881 1.583z" fill="#fbd9a3"/></g><g><path d="m224.501 362.844c-.625 0-1.256-.171-1.822-.53-1.59-1.008-2.061-3.113-1.053-4.702l16.738-26.4c1.009-1.591 3.115-2.06 4.702-1.053 1.59 1.008 2.061 3.113 1.053 4.702l-16.738 26.4c-.649 1.023-1.753 1.583-2.88 1.583z" fill="#fbd9a3"/></g></g></g><g><g><path d="m329.988 342.723-12.724 12.734c-.759.769-1.412 1.616-1.928 2.541l-.01.01c-1.022 1.791-1.577 3.826-1.577 5.929v26.042c0 .545-.039 1.071-.107 1.597-.779 5.861-5.812 10.397-11.887 10.397h-19.51c-6.63 0-11.994-5.374-11.994-11.994v-37.812c0-6.62 5.364-11.994 11.994-11.994h11.4c2.385 0 4.702-.711 6.649-2.006.652-.428 1.266-.935 1.83-1.499l10.904-10.904c4.683-4.683 12.276-4.683 16.959 0 4.684 4.683 4.684 12.277.001 16.959z" fill="#f9c744"/></g><g><path d="m329.988 342.723-12.724 12.734c-.759.769-1.412 1.616-1.928 2.541l-.01.01c-1.022 1.791-1.577 3.826-1.577 5.929v15.995h-10.271c-6.64 0-12.033-5.384-12.033-12.033v-27.726h2.2c2.385 0 4.702-.711 6.649-2.006.652-.428 1.266-.935 1.83-1.499l10.904-10.904c4.683-4.683 12.276-4.683 16.959 0 4.684 4.683 4.684 12.277.001 16.959z" fill="#f39e22"/></g><g><path d="m279.373 379.931c-.872 0-1.744-.333-2.409-.998-1.331-1.331-1.331-3.488 0-4.819l41.941-41.94c1.329-1.33 3.487-1.33 4.818 0 1.331 1.331 1.331 3.488 0 4.819l-41.941 41.94c-.664.665-1.537.998-2.409.998z" fill="#fbd9a3"/></g><g><path d="m300.296 338.167-15.888 15.888c-.672.672-1.538 1.003-2.414 1.003-.866 0-1.743-.331-2.405-1.003-1.334-1.324-1.334-3.485 0-4.819l9.064-9.064h4.994c2.385.001 4.702-.71 6.649-2.005z" fill="#fbd9a3"/></g><g><path d="m315.327 358.008c-1.022 1.791-1.577 3.826-1.577 5.929v5.286l-21.612 21.603c-.662.662-1.538 1.003-2.405 1.003-.876 0-1.743-.341-2.414-1.003-1.324-1.334-1.324-3.485 0-4.819z" fill="#fbd9a3"/></g><g><path d="m313.75 381.83v8.148c0 .545-.039 1.071-.107 1.597l-4.615 4.615c-.662.672-1.538 1.003-2.414 1.003-.866 0-1.743-.331-2.405-1.003-1.334-1.324-1.334-3.485 0-4.819z" fill="#fbd9a3"/></g><path d="m336.366 334.457c0-7.914-6.416-20.719-14.33-20.719s-14.33 12.804-14.33 20.719c0 7.914 6.416 14.33 14.33 14.33s14.33-6.415 14.33-14.33z" fill="#f9c744"/><path d="m333.5 331.263c0-4.271-5.896-11.503-10.167-11.503s-5.3 7.232-5.3 11.503 3.462 7.733 7.733 7.733c4.272 0 7.734-3.462 7.734-7.733z" fill="#fbd9a3"/></g></g><g><path d="m322.331 220.208h-79.955c-13.613 0-26.017 5.161-35.369 13.631-10.374 9.395-24.231 13.962-38.078 11.929l-19.581-2.874c-9.692-1.423-18.387 6.09-18.387 15.885v28.316c0 9.795 8.696 17.308 18.387 15.885l19.581-2.874c13.847-2.033 27.705 2.534 38.078 11.929 9.352 8.47 21.757 13.631 35.369 13.631h79.955c29.121 0 97.814-8.555 97.814-37.676-.615-4.338-2.706-8.371-6.04-11.214-4.417-3.767-7.767-8.683-9.845-14.201-9.929-26.367-56.044-42.367-81.929-42.367z" fill="#ea792e"/><g><g><path d="m349.729 288.139c0-11.689 2.254-25.378 6.162-38.269 2.209-7.286-6.894-12.666-12.123-7.132-11.407 12.071-18.946 31.286-18.946 45.925 0 14.139 7.033 20.715 17.791 23.686 5.296 1.463 10.252-3.429 8.855-8.742-1.131-4.3-1.739-9.406-1.739-15.468z" fill="#f39e22"/><path d="m343.819 285.15c0-6.889 1.329-14.957 3.632-22.555 1.302-4.295-4.063-7.465-7.145-4.203-6.723 7.115-11.167 18.44-11.167 27.068 0 8.333 4.145 12.209 10.486 13.96 3.121.862 6.042-2.021 5.219-5.152-.667-2.536-1.025-5.545-1.025-9.118z" fill="#f9c744"/><circle cx="336.693" cy="283.109" fill="#fbd9a3" r="7.514"/></g><g><path d="m147.761 269.579h43.102c4.247 0 7.69-3.443 7.69-7.69 0-3.814-2.795-7.051-6.568-7.608l-43.102-6.355c-4.644-.685-8.812 2.914-8.812 7.608v6.355c0 4.247 3.443 7.69 7.69 7.69z" fill="#f39e22"/><path d="m149.752 271.946c-.242-.001-.486-.009-.732-.023-6.237-.356-11.495-5.192-12.322-11.384-1.085-8.123 5.208-15.063 13.118-15.063h.056c1.853.008 2.709 2.328 1.36 3.598-2.562 2.413-4.162 5.84-4.162 9.641 0 3.797 1.596 7.216 4.154 9.626 1.39 1.31.437 3.613-1.472 3.605z" fill="#fbd9a3"/><path d="m170.448 271.946c-.221-.001-.443-.008-.666-.021-5.679-.324-10.467-4.728-11.22-10.366-.988-7.397 4.742-13.717 11.945-13.717h.051c1.687.007 2.467 2.12 1.239 3.277-2.333 2.197-3.79 5.318-3.79 8.779 0 3.458 1.453 6.571 3.782 8.766 1.265 1.192.397 3.29-1.341 3.282z" fill="#f9c744"/><path d="m188.569 271.946c-.191-.001-.383-.007-.577-.018-4.914-.281-9.057-4.091-9.708-8.969-.855-6.4 4.103-11.868 10.335-11.868h.044c1.46.006 2.134 1.834 1.072 2.835-2.019 1.901-3.279 4.602-3.279 7.596 0 2.992 1.258 5.686 3.273 7.584 1.095 1.031.344 2.847-1.16 2.84z" fill="#f9c744"/><g fill="#f39e22"><path d="m149.752 273.929c-.242.001-.486.009-.732.023-6.237.356-11.495 5.192-12.322 11.384-1.085 8.123 5.208 15.063 13.118 15.063h.056c1.853-.008 2.709-2.328 1.36-3.598-2.562-2.413-4.162-5.84-4.162-9.641 0-3.797 1.596-7.216 4.154-9.626 1.39-1.31.437-3.614-1.472-3.605z"/><path d="m170.448 273.929c-.221.001-.443.008-.666.021-5.679.324-10.467 4.728-11.22 10.366-.988 7.397 4.742 13.717 11.945 13.717h.051c1.687-.007 2.467-2.12 1.239-3.277-2.333-2.197-3.79-5.318-3.79-8.779 0-3.458 1.453-6.571 3.782-8.766 1.265-1.192.397-3.29-1.341-3.282z"/><path d="m188.569 273.929c-.191.001-.383.007-.577.018-4.914.281-9.057 4.091-9.708 8.969-.855 6.4 4.103 11.868 10.335 11.868h.044c1.46-.006 2.134-1.834 1.072-2.835-2.019-1.901-3.279-4.602-3.279-7.596 0-2.992 1.258-5.686 3.273-7.584 1.095-1.032.344-2.847-1.16-2.84z"/></g></g><g><path d="m302.838 263.938h7.295c9.36 0 17.308-7.659 17.133-17.017-.17-9.075-7.58-16.379-16.695-16.379h-62.655c-.187 0-.368.022-.553.028-10.1-.451-19.85 5.387-23.901 15.28l-11.143 27.21c-5.157 12.592.871 26.981 13.464 32.138l13.896 5.69c12.592 5.157 26.981-.871 32.137-13.464l6.285-16.454c3.918-10.257 13.758-17.032 24.737-17.032z" fill="#f39e22"/><path d="m305.825 257.047h-58.507c-7.312 0-13.239-5.927-13.239-13.239 0-7.312 5.927-13.239 13.239-13.239h58.507c7.312 0 13.239 5.927 13.239 13.239 0 7.312-5.927 13.239-13.239 13.239z" fill="#f9c744"/><path d="m247.252 257.043c-.242-.001-.486-.009-.732-.023-6.237-.356-11.495-5.192-12.322-11.384-1.085-8.123 5.208-15.063 13.118-15.063h.056c1.853.008 2.709 2.328 1.36 3.598-2.562 2.413-4.162 5.84-4.162 9.641 0 3.797 1.596 7.216 4.154 9.626 1.389 1.31.437 3.613-1.472 3.605z" fill="#fbd9a3"/><path d="m274.535 257.043c-.242-.001-.486-.009-.732-.023-6.237-.356-11.495-5.192-12.322-11.384-1.085-8.123 5.208-15.063 13.118-15.063h.056c1.853.008 2.709 2.328 1.36 3.598-2.562 2.413-4.162 5.84-4.162 9.641 0 3.797 1.596 7.216 4.154 9.626 1.39 1.31.437 3.613-1.472 3.605z" fill="#fbd9a3"/><path d="m234.303 294.956c-.242-.001-.486-.009-.732-.023-6.237-.356-11.495-5.192-12.322-11.384-1.085-8.123 5.208-15.063 13.118-15.063h.056c1.853.008 2.709 2.328 1.36 3.598-2.562 2.413-4.162 5.84-4.162 9.641 0 3.797 1.596 7.216 4.154 9.626 1.389 1.31.436 3.614-1.472 3.605z" fill="#f9c744"/><path d="m261.586 294.956c-.242-.001-.486-.009-.732-.023-6.237-.356-11.495-5.192-12.322-11.384-1.085-8.123 5.208-15.063 13.118-15.063h.056c1.853.008 2.709 2.328 1.36 3.598-2.562 2.413-4.162 5.84-4.162 9.641 0 3.797 1.596 7.216 4.154 9.626 1.39 1.31.437 3.614-1.472 3.605z" fill="#f9c744"/><path d="m301.818 257.043c-.242-.001-.486-.009-.732-.023-6.237-.356-11.495-5.192-12.322-11.384-1.085-8.123 5.208-15.063 13.118-15.063h.056c1.853.008 2.709 2.328 1.36 3.598-2.562 2.413-4.162 5.84-4.162 9.641 0 3.797 1.596 7.216 4.154 9.626 1.39 1.31.437 3.613-1.472 3.605z" fill="#fbd9a3"/></g><path d="m301.876 274.327c-8.603 0-15.577 6.974-15.577 15.577v10.084c0 8.603 6.974 15.577 15.577 15.577 8.603 0 15.577-6.974 15.577-15.577v-10.084c0-8.603-6.974-15.577-15.577-15.577z" fill="#f39e22"/><g><path d="m395.306 307.681c1.444 0 2.845-.514 3.972-1.458l14.659-12.276c3.061-2.563 3.183-7.382.256-10.111l-4.944-4.61c-2.97-2.769-7.62-2.032-9.67 1.531l-9.714 16.886c-2.541 4.416.506 10.038 5.441 10.038z" fill="#f39e22"/><circle cx="403.893" cy="289.516" fill="#f9c744" r="7.38"/></g></g></g><g><path d="m397.701 271.656c0 11.517-9.353 20.87-20.87 20.87-11.532 0-20.87-9.353-20.87-20.87 0-3.123.683-6.085 1.917-8.743 3.311-7.16 10.544-12.127 18.953-12.127 8.395 0 15.642 4.967 18.953 12.127 1.234 2.658 1.917 5.621 1.917 8.743z" fill="#f39e22"/><ellipse cx="376.83" cy="262.913" fill="#fbd9a3" rx="18.953" ry="12.127"/><path d="m390.018 271.656c0 5.679-3.602 10.53-8.642 12.389-1.423.508-2.948.799-4.546.799-7.291 0-13.187-5.911-13.187-13.188 0-7.291 5.897-13.187 13.187-13.187 1.598 0 3.123.29 4.546.799 5.04 1.859 8.642 6.695 8.642 12.388z" fill="#3f5d77"/><ellipse cx="381.376" cy="271.656" fill="#2e3140" rx="8.642" ry="12.389"/><circle cx="376.826" cy="268.544" fill="#83d5ef" r="6.5"/></g></g><g><g><circle cx="450.383" cy="280.266" fill="#83d5ef" r="15.694"/><circle cx="452.848" cy="276.033" fill="#cde6f6" r="8.811"/></g><g><circle cx="424.506" cy="207.626" fill="#83d5ef" r="23.875"/><circle cx="428.256" cy="201.186" fill="#cde6f6" r="13.404"/></g><g><path d="m483.71 138.92c-4.34 12.18-15.97 20.89-29.63 20.89-17.37 0-31.46-14.08-31.46-31.45 0-17.38 14.09-31.46 31.46-31.46.87 0 1.72.03 2.57.1 1.38 1.74 2.74 3.51 4.08 5.29 5.46 7.26 10.54 14.82 15.21 22.65 2.74 4.57 5.33 9.23 7.77 13.98z" fill="#83d5ef"/><path d="m475.94 124.94c-2.18 7.28-8.93 12.59-16.92 12.59-9.75 0-17.66-7.91-17.66-17.66s7.91-17.66 17.66-17.66c.58 0 1.15.03 1.71.08 5.46 7.26 10.54 14.82 15.21 22.65z" fill="#cde6f6"/></g><g><circle cx="353.782" cy="88.416" fill="#83d5ef" r="31.455"/><circle cx="358.722" cy="79.93" fill="#cde6f6" r="17.659"/></g><g><path d="m319.86 8.03c-10.79-2.77-21.86-4.86-33.15-6.2-5.89-.71-11.84-1.22-17.85-1.51-.66 2.53-1.01 5.19-1.01 7.93 0 17.38 14.09 31.46 31.46 31.46 16.42 0 29.91-12.59 31.33-28.65-3.56-1.09-7.16-2.1-10.78-3.03z" fill="#83d5ef"/><path d="m319.86 8.03c-2.96 5.59-8.84 9.4-15.61 9.4-9.05 0-16.52-6.82-17.54-15.6 11.29 1.34 22.36 3.43 33.15 6.2z" fill="#cde6f6"/></g></g></g></svg>