<svg id="Icons" enable-background="new 0 0 512 512" height="512" viewBox="0 0 512 512" width="512" xmlns="http://www.w3.org/2000/svg"><g><circle cx="256" cy="256" fill="#6c53a2" r="256"/><g><g><g><path d="m196.3 135.97v158.24h-24.21c-19.15-19.16-30.97-33.46-35.26-48.11-7.6-25.95 8.4-53.02 49.07-110.13z" fill="#2e3140"/><path d="m192.26 137.07c0 51.06-23.28 94.31-55.43 109.03-7.6-25.95 8.4-53.02 49.07-110.13h6.35c.01.36.01.73.01 1.1z" fill="#3e4e60"/></g><g><path d="m316.158 135.97v158.24h24.21c19.15-19.16 30.97-33.46 35.26-48.11 7.6-25.95-8.4-53.02-49.07-110.13z" fill="#2e3140"/><path d="m320.198 137.07c0 51.06 23.28 94.31 55.43 109.03 7.6-25.95-8.4-53.02-49.07-110.13h-6.35c-.01.36-.01.73-.01 1.1z" fill="#3e4e60"/></g></g><g><g><g><path d="m340.76 278.433v42.531c0 19.38-7.927 38.191-22.473 53.319l-37.487 38.989h-49.203l-37.487-38.989c-14.546-15.128-22.473-33.939-22.473-53.319v-42.531c0-38.689 37.511-70.084 83.908-70.364.216-.01.432-.01.648-.01 23.36 0 44.491 7.874 59.804 20.607 15.301 12.744 24.763 30.327 24.763 49.767z" fill="#a26d5a"/><path d="m340.76 278.433v42.531c0 19.38-7.927 38.191-22.473 53.319l-37.487 38.989h-25.255v-205.203c.216-.01.432-.01.648-.01 23.36 0 44.491 7.874 59.804 20.607 15.301 12.744 24.763 30.327 24.763 49.767z" fill="#c17e62"/></g><g><path d="m331.539 231.63-4.233 5.968c-11.656 16.476-19.463 34.628-22.989 53.519l-15.386 82.329c-2.291 12.254-.096 24.808 6.308 36.015l6.236 10.907c4.629 8.103 6.62 17.075 5.78 26.026l-2.614 27.563c-.887 9.47-10.385 16.775-21.801 16.775h-53.33c-11.404 0-20.902-7.305-21.802-16.765l-2.662-27.942c-.84-8.712 1.031-17.464 5.408-25.407l7.111-12.913c6.068-11.007 8.107-23.262 5.864-35.237l-15.482-82.838c-3.526-18.851-11.309-36.983-22.929-53.429l-4.173-5.898c-8.574-12.115-10.301-26.754-4.725-40.027l24.32-57.899c5.312-12.624 19.631-21.086 35.7-21.086h39.945c16.142 0 30.496 8.532 35.748 21.226l24.524 59.277c5.47 13.222 3.708 27.781-4.818 39.836z" fill="#c17e62"/><path d="m331.539 231.63-4.233 5.968c-11.656 16.476-19.463 34.628-22.989 53.519l-15.386 82.329c-2.291 12.254-.096 24.808 6.308 36.015l6.236 10.907c4.629 8.103 6.62 17.075 5.78 26.026l-2.614 27.563c-.887 9.47-10.385 16.775-21.801 16.775h-26.634v-379.44h19.883c16.142 0 30.496 8.532 35.748 21.226l24.524 59.277c5.466 13.221 3.704 27.78-4.822 39.835z" fill="#d48d77"/></g><g><path d="m267.283 270.321h-11.079v107.932c9.498 0 17.498-5.905 18.631-13.752l11.079-76.701c1.343-9.296-7.379-17.479-18.631-17.479z" fill="#eea47d"/><path d="m245.116 270.321h11.079v107.932c-9.498 0-17.498-5.905-18.631-13.752l-11.079-76.701c-1.343-9.296 7.379-17.479 18.631-17.479z" fill="#d48d77"/></g><g><path d="m256.204 130.702h10.445c11.638 0 22.024 7.307 25.955 18.261l12.503 34.842c3.899 10.866-1.799 22.789-12.673 26.662-9.467 3.372-21.946 6.401-36.229 6.401v-86.166z" fill="#eea47d"/><path d="m256.204 130.702h-10.444c-11.638 0-22.024 7.307-25.955 18.261l-12.503 34.842c-3.899 10.866 1.799 22.789 12.673 26.662 9.467 3.372 21.946 6.401 36.229 6.401z" fill="#d48d77"/></g><g><g><path d="m336.105 124.996c-1.03 1.17-2.14 2.14-3.32 2.89-13.55 8.6-6.79 38.41-6.58 39.36l-50.12-55.96c0-39.15 19.36-40.9 26.61-59.97 1.68-4.39 2.71-9.71 2.71-16.63 0-36.88 21.85-11.96 34.08 10.47 11.33 20.76 9.47 65.35-3.38 79.84z" fill="#d48d77"/><path d="m336.105 124.996c-19.57-16.13-32.62-43.03-33.41-73.68 1.68-4.39 2.71-9.71 2.71-16.63 0-36.88 21.85-11.96 34.08 10.47 11.33 20.76 9.47 65.35-3.38 79.84z" fill="#eea47d"/><path d="m319.145 126.022c-3.905 2.648-9.238.291-9.974-4.369-4.915-31.119-2.694-45.724 2.357-60.096 5.444-15.49-5.444-36.959 0-38.861s36.152 36.687 26.097 72.015c-5.373 18.877-12.763 27.434-18.48 31.311z" fill="#c17e62"/></g><g><path d="m175.895 124.996c1.03 1.17 2.14 2.14 3.32 2.89 13.55 8.6 6.79 38.41 6.58 39.36l50.12-55.96c0-39.15-19.36-40.9-26.61-59.97-1.68-4.39-2.71-9.71-2.71-16.63 0-36.88-21.85-11.96-34.08 10.47-11.33 20.76-9.47 65.35 3.38 79.84z" fill="#c17e62"/><path d="m175.895 124.996c19.57-16.13 32.62-43.03 33.41-73.68-1.68-4.39-2.71-9.71-2.71-16.63 0-36.88-21.85-11.96-34.08 10.47-11.33 20.76-9.47 65.35 3.38 79.84z" fill="#d48d77"/><path d="m192.855 126.022c3.905 2.648 9.238.291 9.974-4.369 4.915-31.119 2.694-45.724-2.357-60.096-5.444-15.49 5.444-36.959 0-38.861s-36.152 36.687-26.097 72.015c5.373 18.877 12.763 27.434 18.48 31.311z" fill="#a26d5a"/></g></g></g><g><g><path d="m332.959 227.2c7.402 4.274 9.977 13.686 5.809 21.121-.026.068-.062.131-.098.193l-5.428 9.401c-2.152 3.727-5.615 6.239-9.474 7.273-3.865 1.044-8.11.607-11.847-1.551-6.944-4.009-9.646-12.551-6.518-19.726.232-.546.501-1.085.802-1.605l5.428-9.401c2.158-3.737 5.625-6.233 9.484-7.267 3.86-1.034 8.105-.596 11.842 1.562z" fill="#3e4e60"/><path d="m332.959 227.2c7.402 4.274 9.977 13.686 5.809 21.121-8.344 4.427-19.205 4.389-28.564-1.014-1.739-1.004-3.345-2.14-4.799-3.396.232-.546.501-1.085.802-1.605l5.428-9.401c2.158-3.737 5.625-6.233 9.484-7.267 3.858-1.034 8.103-.596 11.84 1.562z" fill="#2e3140"/><path d="m319.403 233.537-3.266 5.656c-1.406 2.436-.572 5.55 1.864 6.956 2.436 1.406 5.55.572 6.956-1.864l3.266-5.656c1.406-2.436.572-5.55-1.864-6.956-2.435-1.406-5.549-.571-6.956 1.864z" fill="#fff"/></g><g><path d="m178.13 227.2c-7.402 4.274-9.977 13.686-5.809 21.121.026.068.062.131.098.193l5.428 9.401c2.152 3.727 5.615 6.239 9.474 7.273 3.865 1.044 8.11.607 11.847-1.551 6.944-4.009 9.646-12.551 6.518-19.726-.232-.546-.501-1.085-.802-1.605l-5.428-9.401c-2.158-3.737-5.625-6.233-9.484-7.267-3.86-1.034-8.104-.596-11.842 1.562z" fill="#3e4e60"/><path d="m178.13 227.2c-7.402 4.274-9.977 13.686-5.809 21.121 8.344 4.427 19.205 4.389 28.564-1.014 1.739-1.004 3.345-2.14 4.8-3.396-.232-.546-.501-1.085-.802-1.605l-5.428-9.401c-2.158-3.737-5.625-6.233-9.484-7.267s-8.103-.596-11.841 1.562z" fill="#2e3140"/><path d="m191.686 233.537 3.266 5.656c1.406 2.436.572 5.55-1.864 6.956-2.436 1.406-5.55.572-6.956-1.864l-3.266-5.656c-1.406-2.436-.572-5.55 1.864-6.956 2.436-1.406 5.55-.571 6.956 1.864z" fill="#fff"/></g></g><g><g><path d="m244.98 459.835c0 5.578-5.121 10.338-11.92 10.827-7.183.519-13.515-3.902-14.139-9.879l-1.031-9.84-1.247-11.805c-.636-5.978 4.689-11.247 11.872-11.775 7.183-.519 13.515 3.902 14.139 9.879l.827 7.854 1.451 13.791c.036.319.048.639.048.948z" fill="#2e3140"/><path d="m244.98 459.835c0 5.578-5.121 10.338-11.92 10.827-7.183.519-13.515-3.902-14.139-9.879l-1.031-9.84c8.035-2.874 16.621-4.87 25.591-5.848l1.451 13.791c.036.32.048.64.048.949z" fill="#3e4e60"/></g><g><path d="m295.394 439.138-1.223 11.676-1.055 9.969c-.6 5.658-6.308 9.919-13.011 9.919-.372 0-.755-.01-1.139-.04-7.183-.519-12.496-5.798-11.872-11.775l1.451-13.831.827-7.814c.636-5.978 6.967-10.398 14.151-9.879 7.183.529 12.495 5.798 11.871 11.775z" fill="#2e3140"/><path d="m294.171 450.814-1.055 9.969c-.6 5.658-6.308 9.919-13.011 9.919-.372 0-.755-.01-1.139-.04-7.183-.519-12.496-5.798-11.872-11.775l1.451-13.831c8.981.948 17.58 2.914 25.626 5.758z" fill="#3e4e60"/></g></g></g><g><path d="m295.17 161.72h-78.34c-10.42 0-17.15-11.04-12.36-20.31l2.26-4.37 6.37-12.33 10.77-20.87c6.21-12.02 18.6-19.57 32.13-19.57s25.92 7.55 32.13 19.57l10.68 20.68 6.46 12.52 2.26 4.37c4.79 9.27-1.94 20.31-12.36 20.31z" fill="#2e3140"/><path d="m295.17 161.72h-78.34c-10.42 0-17.15-11.04-12.36-20.31l2.26-4.37 6.37-12.33c13-4.97 27.63-7.75 43.09-7.75 15.27 0 29.73 2.72 42.62 7.56l6.46 12.52 2.26 4.37c4.79 9.27-1.94 20.31-12.36 20.31z" fill="#3e4e60"/></g></g></g></svg>