<svg id="Icons" enable-background="new 0 0 512 512" height="512" viewBox="0 0 512 512" width="512" xmlns="http://www.w3.org/2000/svg"><g><circle cx="256" cy="256" fill="#22bce0" r="256"/><g><g><g><g><path d="m433.89 440.09c-10.786 10.439-22.507 19.912-34.95 28.32h-91.43c-8.516-.023-16.353-2.257-23.42-6.49-13.2-7.95-22.03-22.43-22.03-38.96v-57.41c-.273-28.281 23.605-52.215 51.95-51.95.542 3.762-1.388 101.063 1.33 101.91h.01c3.297 9.616 12.421 16.529 23.17 16.53h71.63c8.93 0 17.16 3 23.74 8.05z" fill="#d15a96"/><path d="m422.27 450.66c-7.429 6.348-15.228 12.273-23.33 17.75h-91.43c-8.516-.023-16.353-2.257-23.42-6.49-13.2-7.95-22.03-22.43-22.03-38.96v-57.41c.004-5.595.885-11.137 2.64-16.38 5.016-15.341 17.505-27.85 32.84-32.9v104.87c0 12.84 10.41 23.24 23.24 23.24h84.33c6.54 0 12.53 2.36 17.16 6.28z" fill="#ed72ab"/><g><path d="m291.63 379.085v-30.975c0-5.824-4.721-10.545-10.545-10.545s-10.545 4.721-10.545 10.545v30.975c.562 13.983 20.523 13.995 21.09 0z" fill="#ff9fb4"/><path d="m284.204 376.816v-26.437c-.21-6.914-10.258-6.926-10.472 0v26.437c.211 6.914 10.258 6.926 10.472 0z" fill="#ed72ab"/></g><g><path d="m291.63 438.091v-30.975c0-5.824-4.721-10.545-10.545-10.545s-10.545 4.721-10.545 10.545v30.975c.562 13.984 20.523 13.995 21.09 0z" fill="#ff9fb4"/><path d="m284.204 435.822v-26.437c-.21-6.914-10.258-6.926-10.472 0v26.437c.211 6.914 10.258 6.926 10.472 0z" fill="#ed72ab"/></g><g><path d="m316.9 455.24h-24.604c-4.626 0-8.376 3.75-8.376 8.376s3.75 8.376 8.376 8.376h24.604c11.092-.408 11.102-16.341 0-16.752z" fill="#ff9fb4"/><path d="m315.098 461.138h-20.999c-5.491.167-5.501 8.148 0 8.318h20.999c5.492-.167 5.501-8.148 0-8.318z" fill="#ed72ab"/></g><g><path d="m362.999 455.24h-24.604c-4.626 0-8.376 3.75-8.376 8.376s3.75 8.376 8.376 8.376h24.604c11.092-.408 11.102-16.341 0-16.752z" fill="#ff9fb4"/><path d="m361.197 461.138h-20.999c-5.491.167-5.501 8.148 0 8.318h20.999c5.492-.167 5.501-8.148 0-8.318z" fill="#ed72ab"/></g><g><path d="m409.1 455.24h-24.61c-11.065.38-11.091 16.359 0 16.75h8.98c7.223-4.596 14.196-9.57 20.92-14.86-1.44-1.18-3.28-1.89-5.29-1.89z" fill="#ff9fb4"/><path d="m408.79 461.42c-3.74 2.773-7.537 5.471-11.43 8.04h-11.06c-1.06 0-2.03-.4-2.76-1.05-2.842-2.405-1.008-7.352 2.76-7.27h21c.52 0 1.03.1 1.49.28z" fill="#ed72ab"/></g></g><g><path d="m249.94 365.55v57.41c-.021 18.871-11.435 35.014-27.9 41.94-5.4 2.26-11.33 3.51-17.55 3.51h-91.43c-12.443-8.408-24.164-17.881-34.95-28.32 6.58-5.05 14.81-8.05 23.74-8.05h71.63c10.75 0 19.87-6.91 23.17-16.53h.01c2.665.022.823-98.816 1.33-101.91 28.35-.262 52.221 23.667 51.95 51.95z" fill="#d15a96"/><path d="m249.94 365.55v57.41c-.021 18.871-11.435 35.014-27.9 41.94-5.4 2.26-11.33 3.51-17.55 3.51h-91.43c-8.102-5.477-15.901-11.402-23.33-17.75 4.63-3.92 10.62-6.28 17.16-6.28h84.33c12.83 0 23.24-10.4 23.24-23.24v-104.87c20.811 6.71 35.755 27.386 35.48 49.28z" fill="#ed72ab"/><g><path d="m220.37 379.085v-30.975c0-5.824 4.721-10.545 10.545-10.545s10.545 4.721 10.545 10.545v30.975c-.562 13.983-20.523 13.995-21.09 0z" fill="#ff9fb4"/><path d="m227.796 376.816v-26.437c.21-6.914 10.258-6.926 10.472 0v26.437c-.211 6.914-10.258 6.926-10.472 0z" fill="#ed72ab"/></g><g><path d="m220.37 438.091v-30.975c0-5.824 4.721-10.545 10.545-10.545s10.545 4.721 10.545 10.545v30.975c-.562 13.984-20.523 13.995-21.09 0z" fill="#ff9fb4"/><path d="m227.796 435.822v-26.437c.21-6.914 10.258-6.926 10.472 0v26.437c-.211 6.914-10.258 6.926-10.472 0z" fill="#ed72ab"/></g><g><path d="m195.1 455.24h24.604c4.626 0 8.376 3.75 8.376 8.376s-3.75 8.376-8.376 8.376h-24.604c-11.092-.408-11.102-16.341 0-16.752z" fill="#ff9fb4"/><path d="m196.902 461.138h20.999c5.492.167 5.501 8.148 0 8.318h-20.999c-5.492-.167-5.501-8.148 0-8.318z" fill="#ed72ab"/></g><g><path d="m149.001 455.24h24.604c4.626 0 8.376 3.75 8.376 8.376s-3.75 8.376-8.376 8.376h-24.604c-11.092-.408-11.102-16.341 0-16.752z" fill="#ff9fb4"/><path d="m150.803 461.138h20.999c5.492.167 5.501 8.148 0 8.318h-20.999c-5.492-.167-5.501-8.148 0-8.318z" fill="#ed72ab"/></g><g><path d="m135.88 463.62c.014 4.576-3.751 8.385-8.37 8.37h-8.98c-7.223-4.596-14.196-9.57-20.92-14.86 1.44-1.18 3.28-1.89 5.29-1.89h24.61c4.62 0 8.37 3.75 8.37 8.38z" fill="#ff9fb4"/><path d="m129.86 465.3c.005 2.284-1.869 4.164-4.16 4.16h-11.06c-3.893-2.569-7.69-5.267-11.43-8.04.46-.18.97-.28 1.49-.28h21c2.3 0 4.16 1.86 4.16 4.16z" fill="#ed72ab"/></g></g></g><g><g><path d="m256 350.38c-2.537 7.081-6.715 13.665-12.12 19.06 0 0-29.42 29.42-29.42 29.42-4.259 4.052-12.888 13.588-17.8 16.65h-.01c-10.571 7.255-24.151 9.6-36.5 6.49.01 0 .01 0 0-.01-7.99-1.998-15.096-5.953-21.14-11.96-3.052-3.052-18.445-18.445-21.16-21.16h-.01l-18.74-18.74v-.01l-4.18-4.17c0-.01 0-.01 0-.01l-5.49-5.49s0 0-.01 0l-4.17-4.18h-.01c-3.336-3.019-14.429-15.368-18.32-17.18-6.048-3.421-13.639-3.623-19.88-.53-2.06 1.014-4.003 2.33-5.73 4.09 0 0-12.43 12.43-12.43 12.43-2.281 2.287-4.166 4.877-5.59 7.73-4.031-8.738-7.524-17.664-10.55-26.83l24.24-24.24c15.24-15.24 39.94-15.23 55.17 0l50.65 50.65c9.57 9.57 25.09 9.57 34.66 0l19.47-19.47c6.086-6.156 16.123-16.073 22.14-22.14 7.289-7.246 17.461-17.492 24.81-24.81 14.16 13.904 18.992 35.812 12.12 54.41z" fill="#d15a96"/><path d="m256 350.38c-1.5 4.17-3.56 8.19-6.16 11.94-3.438 5.484-19.893 20.765-24.53 25.69h-.01l-10.84 10.84v.01c-4.307 4.101-12.853 13.553-17.8 16.65h-.01c-10.571 7.255-24.151 9.6-36.5 6.49.01 0 .01 0 0-.01-7.99-1.998-15.096-5.953-21.14-11.96-3.052-3.052-18.445-18.445-21.16-21.16h-.01l-18.74-18.74v-.01l-4.18-4.17c0-.01 0-.01 0-.01l-5.49-5.49s0 0-.01 0l-4.17-4.18h-.01c-3.336-3.019-14.429-15.368-18.32-17.18-6.048-3.421-13.639-3.623-19.88-.53-2.06 1.014-4.003 2.33-5.73 4.09 0 0-12.43 12.43-12.43 12.43-2.281 2.287-4.166 4.877-5.59 7.73-1.36-2.914-2.626-5.86-3.86-8.83.18-.21.37-.4.57-.6l29.35-29.35c10.39-10.39 27.25-10.39 37.64 0l59.63 59.63c9.07 9.07 23.79 9.07 32.86 0 8.678-8.734 26.337-26.297 34.98-34.98 10.972-11.087 28.316-28.233 39.18-39.18 6.322 12.598 7.185 27.6 2.36 40.88z" fill="#ed72ab"/><g><path d="m213.401 358.1 21.903-21.903c4.118-4.118 10.794-4.118 14.912 0s4.118 10.794 0 14.912l-21.903 21.903c-10.284 9.491-24.407-4.615-14.912-14.912z" fill="#ff9fb4"/><path d="m220.256 361.747 18.694-18.694c5.037-4.74 12.151 2.356 7.405 7.405 0 0-18.694 18.694-18.694 18.694-5.037 4.739-12.151-2.356-7.405-7.405z" fill="#ed72ab"/></g><g><path d="m171.677 399.824 21.903-21.903c4.118-4.118 10.794-4.118 14.912 0s4.118 10.794 0 14.912l-21.903 21.903c-10.284 9.491-24.407-4.615-14.912-14.912z" fill="#ff9fb4"/><path d="m178.532 403.47 18.694-18.694c5.037-4.74 12.151 2.356 7.405 7.405 0 0-18.694 18.694-18.694 18.694-5.037 4.74-12.151-2.356-7.405-7.405z" fill="#ed72ab"/></g><g><path d="m141.683 394.081 17.397 17.397c7.555 8.131-3.705 19.404-11.845 11.845 0 0-17.397-17.397-17.397-17.397-7.555-8.131 3.704-19.404 11.845-11.845z" fill="#ff9fb4"/><path d="m138.786 399.526 14.849 14.849c1.624 1.624 1.624 4.258 0 5.882s-4.258 1.624-5.882 0l-14.849-14.849c-3.777-3.971 1.902-9.665 5.882-5.882z" fill="#ed72ab"/></g><g><path d="m109.086 361.484 17.397 17.397c7.555 8.131-3.705 19.404-11.845 11.845 0 0-17.397-17.397-17.397-17.397-7.555-8.131 3.704-19.404 11.845-11.845z" fill="#ff9fb4"/><path d="m106.189 366.929 14.849 14.849c1.624 1.624 1.624 4.258 0 5.882s-4.258 1.624-5.882 0l-14.849-14.849c-3.777-3.971 1.902-9.665 5.882-5.882z" fill="#ed72ab"/></g><g><path d="m76.489 328.887 17.397 17.397c7.555 8.131-3.705 19.404-11.845 11.845 0 0-17.397-17.397-17.397-17.397-7.555-8.131 3.704-19.404 11.845-11.845z" fill="#ff9fb4"/><path d="m73.592 334.332 14.849 14.849c1.624 1.624 1.624 4.258 0 5.882s-4.258 1.624-5.882 0l-14.849-14.849c-3.777-3.971 1.902-9.665 5.882-5.882z" fill="#ed72ab"/></g><g><path d="m38.623 342.006 10.365-10.365c4.767-4.534 11.594 2.284 7.057 7.057 0 0-10.365 10.365-10.365 10.365-4.767 4.533-11.594-2.284-7.057-7.057z" fill="#ff9fb4"/><path d="m41.867 343.731 8.846-8.846c2.339-2.262 5.77 1.16 3.504 3.504 0 0-8.846 8.846-8.846 8.846-2.339 2.262-5.77-1.16-3.504-3.504z" fill="#ed72ab"/></g><g><path d="m37.2 355.47c0 1.28-.48 2.55-1.45 3.53l-9.68 9.67c-1.559-3.184-3.062-6.386-4.48-9.63l7.1-7.1c3.054-3.17 8.627-.777 8.51 3.53z" fill="#ff9fb4"/><path d="m34.65 356.94c0 .63-.25 1.26-.73 1.75l-8.55 8.54c-.768-1.583-1.51-3.167-2.24-4.76.147-.155 6.907-6.921 7.28-7.29 1.48-1.567 4.313-.371 4.24 1.76z" fill="#ed72ab"/></g></g><g><path d="m499.26 335.98c-3.026 9.166-6.519 18.092-10.55 26.83-1.423-2.853-3.31-5.443-5.59-7.73 0 0-12.43-12.43-12.43-12.43-3.681-3.697-8.526-5.849-13.62-6.22-6.154-.467-12.311 1.816-16.69 6.22 0 0-13.62 13.62-13.62 13.62h-.01l-4.17 4.18c-.01 0-.01 0-.01 0l-5.49 5.49v.01l-4.18 4.17v.01l-18.74 18.74h-.01c-2.616 2.614-18.184 18.185-21.16 21.16-6.044 6.007-13.15 9.962-21.14 11.96-.01.01-.01.01 0 .01-12.344 3.116-25.929.753-36.5-6.48v-.01h-.01c-.15-.09-.29-.19-.43-.3 0 0 0 0-.01 0-4.455-2.842-13.423-12.585-17.36-16.35-4.811-5.18-32.134-31.093-35.38-36.54-14.255-20.016-11.681-49.212 5.96-66.35 7.388 7.33 17.521 17.563 24.81 24.81 5.976 6.034 16.066 16.024 22.14 22.14 0 0 19.47 19.47 19.47 19.47 9.57 9.57 25.09 9.57 34.66 0l50.65-50.65c15.23-15.23 39.93-15.24 55.17 0z" fill="#d15a96"/><path d="m492.57 353.98c-1.234 2.97-2.5 5.916-3.86 8.83-1.423-2.853-3.31-5.443-5.59-7.73 0 0-12.43-12.43-12.43-12.43-3.679-3.693-8.527-5.852-13.62-6.22-6.154-.467-12.311 1.816-16.69 6.22 0 0-13.62 13.62-13.62 13.62h-.01l-4.17 4.18c-.01 0-.01 0-.01 0l-5.49 5.49v.01l-4.18 4.17v.01l-18.74 18.74h-.01c-2.616 2.614-18.184 18.185-21.16 21.16-6.044 6.007-13.15 9.962-21.14 11.96-.01.01-.01.01 0 .01-12.34 3.11-25.943.765-36.5-6.49h-.01v-.01c-.14-.09-.29-.19-.43-.29 0 0 0 0-.01 0-4.594-2.956-13.324-12.501-17.36-16.35v-.01l-10.84-10.84h-.01c-4.808-5.099-20.963-20.067-24.53-25.69-10.767-15.314-12.226-36.181-3.8-52.82 10.865 10.862 28.153 28.155 39.18 39.18 8.653 8.656 26.285 26.283 34.98 34.98 9.07 9.07 23.79 9.07 32.86 0l59.63-59.63c10.39-10.39 27.25-10.39 37.64 0l29.35 29.35c.2.2.39.39.57.6z" fill="#ed72ab"/><g><path d="m298.599 358.1-21.903-21.903c-4.118-4.118-10.794-4.118-14.912 0s-4.118 10.794 0 14.912l21.903 21.903c10.284 9.491 24.407-4.615 14.912-14.912z" fill="#ff9fb4"/><path d="m291.744 361.747-18.694-18.694c-5.037-4.74-12.151 2.356-7.405 7.405 0 0 18.694 18.694 18.694 18.694 5.037 4.739 12.151-2.356 7.405-7.405z" fill="#ed72ab"/></g><g><path d="m340.323 399.824-21.903-21.903c-4.118-4.118-10.794-4.118-14.912 0s-4.118 10.794 0 14.912l21.903 21.903c10.284 9.491 24.407-4.615 14.912-14.912z" fill="#ff9fb4"/><path d="m333.468 403.47-18.694-18.694c-5.037-4.74-12.151 2.356-7.405 7.405 0 0 18.694 18.694 18.694 18.694 5.037 4.74 12.151-2.356 7.405-7.405z" fill="#ed72ab"/></g><g><path d="m370.317 394.081-17.397 17.397c-7.555 8.131 3.705 19.404 11.845 11.845 0 0 17.397-17.397 17.397-17.397 7.555-8.131-3.704-19.404-11.845-11.845z" fill="#ff9fb4"/><path d="m373.214 399.526-14.849 14.849c-1.624 1.624-1.624 4.258 0 5.882s4.258 1.624 5.882 0l14.849-14.849c3.777-3.971-1.902-9.665-5.882-5.882z" fill="#ed72ab"/></g><g><path d="m402.914 361.484-17.397 17.397c-7.555 8.131 3.705 19.404 11.845 11.845 0 0 17.397-17.397 17.397-17.397 7.555-8.131-3.704-19.404-11.845-11.845z" fill="#ff9fb4"/><path d="m405.811 366.929-14.849 14.849c-1.624 1.624-1.624 4.258 0 5.882s4.258 1.624 5.882 0l14.849-14.849c3.777-3.971-1.902-9.665-5.882-5.882z" fill="#ed72ab"/></g><g><path d="m435.511 328.887-17.397 17.397c-7.555 8.131 3.705 19.404 11.845 11.845 0 0 17.397-17.397 17.397-17.397 7.555-8.131-3.704-19.404-11.845-11.845z" fill="#ff9fb4"/><path d="m438.408 334.332-14.849 14.849c-1.624 1.624-1.624 4.258 0 5.882s4.258 1.624 5.882 0l14.849-14.849c3.777-3.971-1.902-9.665-5.882-5.882z" fill="#ed72ab"/></g><g><path d="m473.377 342.006-10.365-10.365c-4.767-4.534-11.594 2.284-7.057 7.057 0 0 10.365 10.365 10.365 10.365 4.767 4.533 11.594-2.284 7.057-7.057z" fill="#ff9fb4"/><path d="m470.133 343.731-8.846-8.846c-2.339-2.262-5.77 1.16-3.504 3.504 0 0 8.846 8.846 8.846 8.846 2.339 2.262 5.77-1.16 3.504-3.504z" fill="#ed72ab"/></g><g><path d="m490.41 359.04c-1.418 3.244-2.921 6.446-4.48 9.63l-9.68-9.67c-.97-.98-1.45-2.25-1.45-3.53-.117-4.307 5.456-6.7 8.51-3.53 0 0 7.1 7.1 7.1 7.1z" fill="#ff9fb4"/><path d="m488.87 362.47c-.73 1.593-1.472 3.177-2.24 4.76l-8.55-8.54c-.48-.49-.73-1.12-.73-1.75-.071-2.129 2.759-3.328 4.24-1.76.393.393 7.107 7.102 7.28 7.29z" fill="#ed72ab"/></g></g></g><g><g><path d="m492.1 202.58c-3.494 1.937-7.905 1.22-10.63-1.77 0 0-9.19-10.13-9.19-10.13-5.75-6.33-13.91-9.94-22.46-9.94h-17.58c-11.84 0-21.43 9.6-21.43 21.44v95.29c0 25.1-20.35 45.45-45.46 45.45h-57.4c-28.917.135-52.152-23.96-51.95-51.95h93.93c13.53 0 24.51-10.97 24.51-24.51v-71.63c0-21.54 17.46-39.01 39.01-39.01h42.23c10.03 0 19.41 4.95 25.06 13.24l14.34 21.01c2.89 4.23 1.5 10.03-2.98 12.51z" fill="#d15a96"/><path d="m492.1 202.58c-3.494 1.937-7.905 1.22-10.63-1.77 0 0-9.19-10.13-9.19-10.13-5.75-6.33-13.91-9.94-22.46-9.94h-17.58c-11.835 0-21.43 9.595-21.43 21.43v95.3c0 25.101-20.349 45.45-45.45 45.45h-57.41c-22.93 0-42.4-14.86-49.28-35.48h104.87c12.835 0 23.24-10.405 23.24-23.24v-84.324c0-14.699 11.916-26.616 26.616-26.616h41.507c9.314 0 18.095 4.34 23.753 11.738z" fill="#ed72ab"/><g><path d="m321.484 313.351h-30.975c-5.824 0-10.545 4.721-10.545 10.545s4.721 10.545 10.545 10.545h30.975c13.983-.562 13.995-20.523 0-21.09z" fill="#ff9fb4"/><path d="m319.215 320.777h-26.437c-6.914.21-6.926 10.258 0 10.472h26.437c6.914-.21 6.926-10.258 0-10.472z" fill="#ed72ab"/></g><g><path d="m380.491 313.351h-30.975c-5.824 0-10.545 4.721-10.545 10.545s4.721 10.545 10.545 10.545h30.975c13.983-.562 13.995-20.523 0-21.09z" fill="#ff9fb4"/><path d="m378.222 320.777h-26.437c-6.914.21-6.926 10.258 0 10.472h26.437c6.913-.21 6.926-10.258 0-10.472z" fill="#ed72ab"/></g><g><path d="m397.639 288.081v24.604c0 4.626 3.75 8.376 8.376 8.376s8.376-3.75 8.376-8.376v-24.604c-.408-11.092-16.341-11.101-16.752 0z" fill="#ff9fb4"/><path d="m403.537 289.883v20.999c.167 5.492 8.148 5.501 8.318 0v-20.999c-.167-5.491-8.148-5.501-8.318 0z" fill="#ed72ab"/></g><g><path d="m397.639 241.982v24.604c0 4.626 3.75 8.376 8.376 8.376s8.376-3.75 8.376-8.376v-24.604c-.408-11.092-16.341-11.101-16.752 0z" fill="#ff9fb4"/><path d="m403.537 243.784v20.999c.167 5.491 8.148 5.501 8.318 0v-20.999c-.167-5.491-8.148-5.501-8.318 0z" fill="#ed72ab"/></g><g><path d="m397.639 195.883v24.604c0 4.626 3.75 8.376 8.376 8.376s8.376-3.75 8.376-8.376v-24.604c-.408-11.092-16.341-11.101-16.752 0z" fill="#ff9fb4"/><path d="m403.537 197.685v20.999c.167 5.492 8.148 5.501 8.318 0v-20.999c-.167-5.491-8.148-5.501-8.318 0z" fill="#ed72ab"/></g><g><path d="m433.69 178.384h-14.658c-2.756 0-4.99 2.234-4.99 4.99s2.234 4.99 4.99 4.99h14.658c6.592-.202 6.598-9.776 0-9.98z" fill="#ff9fb4"/><path d="m432.616 181.898h-12.51c-3.264.081-3.27 4.873 0 4.956h12.51c3.265-.082 3.271-4.873 0-4.956z" fill="#ed72ab"/></g><g><path d="m462.398 178.384h-14.658c-2.756 0-4.99 2.234-4.99 4.99s2.234 4.99 4.99 4.99h14.658c6.592-.202 6.598-9.776 0-9.98z" fill="#ff9fb4"/><path d="m461.324 181.898h-12.51c-3.264.081-3.27 4.873 0 4.956h12.51c3.265-.082 3.271-4.873 0-4.956z" fill="#ed72ab"/></g></g><g><path d="m19.9 202.58c3.494 1.937 7.905 1.22 10.63-1.77 0 0 9.19-10.13 9.19-10.13 5.75-6.33 13.91-9.94 22.46-9.94h17.58c11.84 0 21.43 9.6 21.43 21.44v95.29c0 25.1 20.35 45.45 45.46 45.45h57.4c28.917.135 52.152-23.96 51.95-51.95h-93.93c-13.53 0-24.51-10.97-24.51-24.51v-71.63c0-21.54-17.46-39.01-39.01-39.01h-42.23c-10.03 0-19.41 4.95-25.06 13.24l-14.34 21.01c-2.89 4.23-1.5 10.03 2.98 12.51z" fill="#d15a96"/><path d="m19.9 202.58c3.494 1.937 7.905 1.22 10.63-1.77 0 0 9.19-10.13 9.19-10.13 5.75-6.33 13.91-9.94 22.46-9.94h17.58c11.835 0 21.43 9.595 21.43 21.43v95.3c0 25.101 20.349 45.45 45.45 45.45h57.41c22.93 0 42.4-14.86 49.28-35.48h-104.87c-12.835 0-23.24-10.405-23.24-23.24v-84.324c0-14.699-11.916-26.616-26.616-26.616h-41.507c-9.314 0-18.095 4.34-23.753 11.738z" fill="#ed72ab"/><g><path d="m190.516 313.351h30.975c5.824 0 10.545 4.721 10.545 10.545s-4.721 10.545-10.545 10.545h-30.975c-13.983-.562-13.995-20.523 0-21.09z" fill="#ff9fb4"/><path d="m192.785 320.777h26.437c6.914.21 6.926 10.258 0 10.472h-26.437c-6.914-.21-6.926-10.258 0-10.472z" fill="#ed72ab"/></g><g><path d="m131.509 313.351h30.975c5.824 0 10.545 4.721 10.545 10.545s-4.721 10.545-10.545 10.545h-30.975c-13.983-.562-13.995-20.523 0-21.09z" fill="#ff9fb4"/><path d="m133.778 320.777h26.437c6.914.21 6.926 10.258 0 10.472h-26.437c-6.913-.21-6.926-10.258 0-10.472z" fill="#ed72ab"/></g><g><path d="m114.361 288.081v24.604c0 4.626-3.75 8.376-8.376 8.376s-8.376-3.75-8.376-8.376v-24.604c.408-11.092 16.341-11.101 16.752 0z" fill="#ff9fb4"/><path d="m108.463 289.883v20.999c-.167 5.492-8.148 5.501-8.318 0v-20.999c.167-5.491 8.148-5.501 8.318 0z" fill="#ed72ab"/></g><g><path d="m114.361 241.982v24.604c0 4.626-3.75 8.376-8.376 8.376s-8.376-3.75-8.376-8.376v-24.604c.408-11.092 16.341-11.101 16.752 0z" fill="#ff9fb4"/><path d="m108.463 243.784v20.999c-.167 5.491-8.148 5.501-8.318 0v-20.999c.167-5.491 8.148-5.501 8.318 0z" fill="#ed72ab"/></g><g><path d="m114.361 195.883v24.604c0 4.626-3.75 8.376-8.376 8.376s-8.376-3.75-8.376-8.376v-24.604c.408-11.092 16.341-11.101 16.752 0z" fill="#ff9fb4"/><path d="m108.463 197.685v20.999c-.167 5.492-8.148 5.501-8.318 0v-20.999c.167-5.491 8.148-5.501 8.318 0z" fill="#ed72ab"/></g><g><path d="m78.31 178.384h14.658c2.756 0 4.99 2.234 4.99 4.99s-2.234 4.99-4.99 4.99h-14.658c-6.592-.202-6.598-9.776 0-9.98z" fill="#ff9fb4"/><path d="m79.384 181.898h12.51c3.264.081 3.27 4.873 0 4.956h-12.51c-3.265-.082-3.271-4.873 0-4.956z" fill="#ed72ab"/></g><g><path d="m49.602 178.384h14.658c2.756 0 4.99 2.234 4.99 4.99s-2.234 4.99-4.99 4.99h-14.658c-6.592-.202-6.598-9.776 0-9.98z" fill="#ff9fb4"/><path d="m50.676 181.898h12.51c3.264.081 3.27 4.873 0 4.956h-12.51c-3.265-.082-3.271-4.873 0-4.956z" fill="#ed72ab"/></g></g></g></g><g><path d="m334.757 121.091v134.949c.113 27.956-18.727 52.836-45.435 60.523-5.575 1.612-11.468 2.479-17.558 2.479h-31.514c-38.032 0-67.385-33.435-62.47-71.141l19.162-147.078c3.062-23.459 25.612-39.07 48.506-33.915.437.094.875.206 1.312.317l58.018 15.088c17.654 4.588 29.979 20.533 29.979 38.778z" fill="#e063a2"/><path d="m334.757 121.091v134.949c0 11.425-3.045 22.147-8.363 31.385-8.037 13.973-21.281 24.566-37.072 29.138-5.575 1.612-11.468 2.479-17.558 2.479-14.534 0-26.316-11.782-26.316-26.316v-225.819c.437.094.875.206 1.312.317l58.018 15.088c17.654 4.589 29.979 20.534 29.979 38.779z" fill="#ed72ab"/><g><g><path d="m303.127 217.525c-23.917 25.918 11.671 61.494 37.572 37.572 10.215-10.105 10.498-27.137 0-37.572-10.422-10.485-27.472-10.22-37.572 0z" fill="#d15a96"/><path d="m312.723 211.38c-7.817 21.156 12.987 41.942 34.121 34.121 7.823-21.148-12.979-41.935-34.121-34.121z" fill="#ff9fb4"/><path d="m340.464 236.311c.042 10.316-8.547 18.625-18.547 18.547-24.603-.974-24.597-36.135 0-37.094 10.001-.071 18.589 8.209 18.547 18.547z" fill="#9acdae"/><path d="m330.299 228.926h-16.764c-3.408 0-6.171 2.763-6.171 6.171v2.428c0 3.408 2.763 6.171 6.171 6.171h16.764c3.408 0 6.171-2.763 6.171-6.171v-2.428c0-3.408-2.763-6.171-6.171-6.171z" fill="#2e3140"/><path d="m334.103 230.465c-.281 8.416-12.434 8.346-12.68 0 .243-8.35 12.404-8.414 12.68 0z" fill="#fff"/></g><g><path d="m171.297 217.525c-23.917 25.918 11.671 61.494 37.572 37.572 10.215-10.105 10.498-27.137 0-37.572-10.422-10.485-27.472-10.22-37.572 0z" fill="#d15a96"/><path d="m180.893 211.38c-7.817 21.156 12.987 41.942 34.121 34.121 7.823-21.148-12.979-41.935-34.121-34.121z" fill="#ff9fb4"/><path d="m208.634 236.311c.042 10.316-8.547 18.625-18.547 18.547-24.603-.974-24.597-36.135 0-37.094 10.001-.071 18.589 8.209 18.547 18.547z" fill="#9acdae"/><path d="m198.469 228.926h-16.764c-3.408 0-6.171 2.763-6.171 6.171v2.428c0 3.408 2.763 6.171 6.171 6.171h16.764c3.408 0 6.171-2.763 6.171-6.171v-2.428c-.001-3.408-2.763-6.171-6.171-6.171z" fill="#2e3140"/><path d="m202.273 230.465c-.281 8.416-12.434 8.346-12.68 0 .243-8.35 12.404-8.414 12.68 0z" fill="#fff"/></g></g><path d="m245.449 85.651 52.092 13.526c4.262 1.107 7.238 4.954 7.238 9.357 0 6.325-5.974 10.947-12.097 9.357l-47.233-12.264z" fill="#ff9fb4"/></g></g></g></svg>