<svg id="Icons" enable-background="new 0 0 512 512" height="512" viewBox="0 0 512 512" width="512" xmlns="http://www.w3.org/2000/svg"><g><circle cx="256" cy="256" fill="#ee6781" r="254.17"/><g><g><path d="m287.626 352.17h-63.251l-19.028 73.266c-5.467 18.178 8.143 36.483 27.125 36.483h47.057c18.982 0 32.592-18.305 27.125-36.483z" fill="#f9c744"/><g fill="#fad98f"><path d="m250.212 419.627v17.733c0 6.213-6.508 10.279-12.092 7.556l-14.906-7.27c-3.553-1.733-5.418-5.707-4.482-9.548l3.933-16.125c1.29-5.287 7.186-7.974 12.022-5.478l10.973 5.663c2.796 1.441 4.552 4.324 4.552 7.469z"/><path d="m261.788 419.627v17.733c0 6.213 6.508 10.279 12.092 7.556l14.906-7.27c3.553-1.733 5.418-5.707 4.482-9.548l-3.933-16.125c-1.29-5.287-7.186-7.974-12.022-5.478l-10.973 5.663c-2.796 1.441-4.552 4.324-4.552 7.469z"/></g><path d="m256 404.508c16.471 0 30.861-8.236 35.001-20.032l9.798-27.915c4.835-11.896-7.202-23.876-23.99-23.876h-41.619c-16.788 0-28.825 11.979-23.99 23.876l9.798 27.915c4.141 11.797 18.531 20.032 35.002 20.032z" fill="#528f66"/></g><g><g><g><g><path d="m392.667 209.337c-4.728 20.823-26.391 96.234-27.084 98.599-2.802 14.373-15.386 24.749-30.036 24.749-16.787.019-30.592-13.617-30.59-30.59 1.183-10.175 7.515-84.531 7.915-98.599.673-16.882 13.692-30.59 30.59-30.59h19.177c19.241 0 34.421 17.705 30.028 36.431z" fill="#f9c744"/></g><g><path d="m383.542 244.184c-8.12 29.648-17.958 63.752-17.958 63.752-2.802 14.373-15.386 24.749-30.036 24.749-7.218 0-13.858-2.501-19.09-6.688l22.184-53.502z" fill="#3f5d77"/></g><g><g><path d="m323.223 208.408c-3.802.056-5.456-5.082-2.23-7.23 0 0 32.748-22.276 32.748-22.276 4.378-2.822 8.7 3.493 4.452 6.544 0 0-32.748 22.276-32.748 22.276-.681.464-1.456.686-2.222.686z" fill="#3f5d77"/></g><g><path d="m325.962 227.12c-3.799.055-5.458-5.08-2.23-7.23 0 0 50.859-34.596 50.859-34.596 4.368-2.821 8.705 3.488 4.452 6.544 0 0-50.859 34.596-50.859 34.596-.681.464-1.456.686-2.222.686z" fill="#3f5d77"/></g><g><path d="m327.286 247.243c-3.798.054-5.459-5.08-2.23-7.23 0 0 55.089-37.474 55.089-37.474 4.367-2.819 8.706 3.486 4.452 6.544 0 0-55.089 37.474-55.089 37.474-.682.464-1.456.686-2.222.686z" fill="#3f5d77"/></g><g><path d="m320.271 272.991c-3.798.054-5.459-5.08-2.23-7.23 0 0 55.089-37.474 55.089-37.474 4.367-2.819 8.706 3.486 4.452 6.544 0 0-55.089 37.474-55.089 37.474-.682.464-1.456.686-2.222.686z" fill="#3f5d77"/></g></g></g><g><g><path d="m119.333 209.337c4.728 20.823 26.391 96.234 27.084 98.599 2.802 14.373 15.386 24.749 30.036 24.749 16.787.019 30.592-13.617 30.59-30.59-1.183-10.175-7.515-84.531-7.915-98.599-.673-16.882-13.692-30.59-30.59-30.59h-19.178c-19.24 0-34.42 17.705-30.027 36.431z" fill="#f9c744"/></g><g><path d="m128.458 244.184c8.12 29.648 17.958 63.752 17.958 63.752 2.802 14.373 15.386 24.749 30.036 24.749 7.218 0 13.858-2.501 19.09-6.688l-22.184-53.502z" fill="#3f5d77"/></g><g><g><path d="m188.776 208.408c-.766 0-1.54-.222-2.222-.686l-32.747-22.276c-4.232-3.032.051-9.375 4.452-6.544 0 0 32.747 22.276 32.747 22.276 3.216 2.139 1.583 7.289-2.23 7.23z" fill="#3f5d77"/></g><g><path d="m186.037 227.12c-.766 0-1.54-.222-2.222-.686l-50.859-34.596c-4.227-3.025.045-9.378 4.452-6.544 0 0 50.859 34.596 50.859 34.596 3.213 2.136 1.585 7.291-2.23 7.23z" fill="#3f5d77"/></g><g><path d="m184.715 247.243c-.766 0-1.54-.222-2.222-.686l-55.089-37.474c-4.226-3.023.043-9.378 4.452-6.544 0 0 55.089 37.474 55.089 37.474 3.212 2.135 1.585 7.291-2.23 7.23z" fill="#3f5d77"/></g><g><path d="m191.729 272.991c-.766 0-1.54-.222-2.222-.686l-55.089-37.474c-4.226-3.023.043-9.378 4.452-6.544 0 0 55.089 37.474 55.089 37.474 3.212 2.135 1.586 7.291-2.23 7.23z" fill="#3f5d77"/></g></g></g></g><g><path d="m346.518 223.33c-3.391 21.16-11.244 70.229-14.547 90.859-4.155 25.896-26.498 44.955-52.727 44.955h-46.482c-26.229 0-48.579-19.058-52.727-44.955l-5.073-31.674-9.482-59.185c-5.192-32.442 19.866-61.844 52.727-61.844h75.592c32.853-.001 57.919 29.402 52.719 61.844z" fill="#53b976"/><path d="m346.518 223.33-9.189 57.38c-46.983 20.133-114.591 20.857-162.367 1.804l-9.482-59.185c-5.192-32.442 19.866-61.844 52.727-61.844h75.592c32.853 0 57.919 29.403 52.719 61.845z" fill="#78c795"/><path d="m292.285 179.565h-72.568c-44.17 1.778-44.194 64.819 0 66.607h72.567c44.172-1.778 44.195-64.82.001-66.607z" fill="#9acdae"/></g><g><path d="m266.229 196.666h-20.454c-31.125 0-55.813-21.753-53.938-47.519l4.508-62.076c.677-9.294 4.732-17.789 11.146-24.674 9.907-10.643 25.442-17.451 42.792-17.451h11.439c26.757.202 51.356 15.954 53.939 42.124 0 0 4.507 62.076 4.507 62.076 1.873 25.767-22.814 47.52-53.939 47.52z" fill="#f9c744"/><g><g><path d="m276.118 118.589c0 4.778-2.853 13.021-6.163 20.994-4.613 11.096-10.122 21.67-10.122 21.67-1.34 3.52-6.323 3.52-7.662 0 0 0-5.509-10.575-10.122-21.67-3.31-7.973-6.163-16.216-6.163-20.994 0-12.691 2.185-12.691 8.737-12.691h22.758c6.551-.001 8.737-.001 8.737 12.691z" fill="#b26e2b"/><path d="m269.955 139.582c-4.613 11.096-10.122 21.67-10.122 21.67-1.34 3.52-6.323 3.52-7.662 0 0 0-5.509-10.575-10.122-21.67 4.608-11.096 10.122-21.675 10.122-21.675 1.34-3.52 6.323-3.52 7.662 0 0 0 5.513 10.58 10.122 21.675z" fill="#dd8c29"/><path d="m256.002 146.937c-2.227 0-4.032-1.805-4.032-4.032v-18.067c0-2.227 1.805-4.032 4.032-4.032s4.032 1.805 4.032 4.032v18.067c0 2.227-1.805 4.032-4.032 4.032z" fill="#f9c744"/><path d="m256.002 132.586c-2.227 0-4.032-1.805-4.032-4.032v-3.716c.164-5.329 7.901-5.33 8.065 0v3.716c-.001 2.227-1.806 4.032-4.033 4.032z" fill="#faefdc"/></g><g><path d="m257.945 92.758c-.012.981.053 7.359-.064 8.193-.663 6.812-6.401 12.138-13.391 12.138-7.432-.003-13.45-6.026-13.45-13.455v-6.876c-.003-7.484 6.107-13.467 13.45-13.45 7.434 0 13.455 6.021 13.455 13.45z" fill="#22a8b9"/><path d="m280.964 92.758c-.012.981.053 7.359-.064 8.193-.663 6.812-6.401 12.138-13.386 12.138-7.431-.002-13.453-6.024-13.455-13.455v-6.876c-.004-7.486 6.112-13.468 13.455-13.45 7.429 0 13.45 6.021 13.45 13.45z" fill="#22a8b9"/><path d="m254.059 99.634c0 1.02.114 2.012.334 2.963-8.428 2.697-17.529-3.98-17.377-12.87.021-.941-.059-7.387.064-8.193 6.039-4.272 15.377-2.056 18.923 4.256-1.234 2.03-1.943 4.416-1.943 6.967v6.877z" fill="#22bce0"/><path d="m280.964 92.758c-.022.989.06 7.354-.064 8.193-8.722 5.91-20.975-.6-20.866-11.224.021-.942-.059-7.387.064-8.192 8.658-5.928 21.026.639 20.866 11.223z" fill="#22bce0"/><path d="m276.862 88.248c0-4.154-3.368-7.522-7.522-7.522-9.957.344-9.955 14.702 0 15.044 4.154 0 7.522-3.367 7.522-7.522z" fill="#83d5ef"/><path d="m253.843 88.248c0-4.154-3.368-7.522-7.522-7.522-9.957.344-9.955 14.702 0 15.044 4.154 0 7.522-3.367 7.522-7.522z" fill="#83d5ef"/><g fill="#3f5d77"><path d="m271.23 89.373c-.124 4.905-7.314 4.904-7.437 0 .124-4.905 7.313-4.904 7.437 0z"/><path d="m248.211 89.373c-.124 4.905-7.314 4.904-7.437 0 .124-4.905 7.313-4.904 7.437 0z"/></g></g></g><g><g><path d="m306.154 90.481c-.024.839.098 11.469-.114 11.96-.668 4.077-4.2 7.123-8.394 7.123-4.7 0-8.508-3.808-8.508-8.508v-10.575c.441-11.305 16.614-11.228 17.016 0z" fill="#334353"/><path d="m306.154 90.481c-.042.847.111 11.464-.114 11.96-5.421 2.534-12.091-1.752-11.951-7.781.032-.816-.1-11.481.11-11.955 5.416-2.535 12.096 1.75 11.955 7.776z" fill="#2d2c33"/><path d="m303.138 87.808c1.666 0 3.016 1.35 3.016 3.016v2.358c-.101 3.977-5.932 3.978-6.033 0v-2.357c.001-1.666 1.351-3.017 3.017-3.017z" fill="#fff"/></g><g><path d="m205.849 90.481c.024.839-.098 11.469.114 11.96.668 4.077 4.2 7.123 8.394 7.123 4.7 0 8.508-3.808 8.508-8.508v-10.575c-.44-11.305-16.614-11.228-17.016 0z" fill="#334353"/><path d="m205.849 90.481c.042.847-.111 11.464.114 11.96 5.421 2.534 12.091-1.752 11.951-7.781-.032-.816.1-11.481-.11-11.955-5.416-2.535-12.095 1.75-11.955 7.776z" fill="#2d2c33"/><path d="m208.865 87.808c-1.666 0-3.016 1.35-3.016 3.016v2.358c.101 3.977 5.932 3.978 6.033 0v-2.357c-.001-1.666-1.351-3.017-3.017-3.017z" fill="#fff"/></g></g><g fill="#fad98f"><path d="m268.966 170.728c0-1.911.433-3.797 1.265-5.517l8.95-18.486c3.805-7.859 14.237-9.598 20.385-3.396l5.618 5.666c4.458 4.497 4.908 11.597 1.053 16.62l-4.271 5.565c-4.182 5.449-9.923 9.494-16.461 11.599-8.174 2.631-16.539-3.465-16.539-12.051z"/><path d="m243.037 170.728c0-1.911-.433-3.797-1.265-5.517l-8.95-18.486c-3.805-7.859-14.237-9.598-20.385-3.396l-5.618 5.666c-4.458 4.497-4.908 11.597-1.053 16.62l4.271 5.565c4.182 5.449 9.923 9.494 16.461 11.599 8.174 2.631 16.539-3.465 16.539-12.051z"/></g><g fill="#3f5d77"><path d="m291.882 130.843h-5.944c-3.184 0-5.765 2.581-5.765 5.765v5.944c0 3.184 2.581 5.765 5.765 5.765h5.944c3.184 0 5.765-2.581 5.765-5.765v-5.944c-.001-3.184-2.582-5.765-5.765-5.765z"/><path d="m300.972 152.022h-4.476c-2.398 0-4.341 1.944-4.341 4.341v4.476c0 2.398 1.944 4.341 4.341 4.341h4.476c2.397 0 4.341-1.944 4.341-4.341v-4.476c0-2.397-1.944-4.341-4.341-4.341z"/><path d="m289.324 167.913h-3.396c-1.819 0-3.294 1.475-3.294 3.294v3.396c0 1.819 1.475 3.294 3.294 3.294h3.396c1.819 0 3.294-1.475 3.294-3.294v-3.396c0-1.819-1.475-3.294-3.294-3.294z"/><path d="m274.967 175.732h-2.608c-1.397 0-2.529 1.132-2.529 2.529v2.608c0 1.397 1.132 2.529 2.529 2.529h2.608c1.397 0 2.529-1.132 2.529-2.529v-2.608c-.001-1.397-1.133-2.529-2.529-2.529z"/></g><g fill="#3f5d77"><path d="m220.122 130.843h5.944c3.184 0 5.765 2.581 5.765 5.765v5.944c0 3.184-2.581 5.765-5.765 5.765h-5.944c-3.184 0-5.765-2.581-5.765-5.765v-5.944c0-3.184 2.581-5.765 5.765-5.765z"/><path d="m211.032 152.022h4.476c2.398 0 4.341 1.944 4.341 4.341v4.476c0 2.398-1.944 4.341-4.341 4.341h-4.476c-2.398 0-4.341-1.944-4.341-4.341v-4.476c0-2.397 1.943-4.341 4.341-4.341z"/><path d="m222.679 167.913h3.396c1.819 0 3.294 1.475 3.294 3.294v3.396c0 1.819-1.475 3.294-3.294 3.294h-3.396c-1.819 0-3.294-1.475-3.294-3.294v-3.396c0-1.819 1.475-3.294 3.294-3.294z"/><path d="m237.037 175.732h2.608c1.397 0 2.529 1.132 2.529 2.529v2.608c0 1.397-1.132 2.529-2.529 2.529h-2.608c-1.397 0-2.529-1.132-2.529-2.529v-2.608c0-1.397 1.132-2.529 2.529-2.529z"/></g><path d="m304.513 62.396c-28.402 15.232-68.621 15.232-97.023 0 9.907-10.643 25.442-17.451 42.792-17.451h11.439c17.35.001 32.885 6.808 42.792 17.451z" fill="#fad98f"/></g></g><g><path d="m427.973 371.137h-343.946c-6.353 0-11.503-5.15-11.503-11.503s5.15-11.503 11.503-11.503h343.946c15.159.567 15.357 22.348 0 23.006z" fill="#b26e2b"/><g fill="#dd8c29"><path d="m170.256 362.191h-72.78c-9.285-.312-9.322-13.733 0-14.059h72.78c9.285.311 9.322 13.732 0 14.059z"/><path d="m414.525 362.191h-72.78c-9.285-.312-9.322-13.733 0-14.059h72.78c9.285.311 9.321 13.732 0 14.059z"/></g></g><g><g><path d="m219.527 342.38v29.228c0 3.69-1.493 7.023-3.911 9.431-8.217 8.338-22.813 2.433-22.773-9.431v-29.227c0-5.212 2.986-9.72 7.341-11.916 8.582-4.53 19.527 2.145 19.343 11.915z" fill="#dd8c29"/><path d="m246.212 342.38v29.228c0 3.69-1.493 7.023-3.911 9.431-8.217 8.338-22.813 2.433-22.773-9.431v-29.227c0-5.212 2.986-9.72 7.341-11.916 8.582-4.53 19.527 2.145 19.343 11.915z" fill="#dd8c29"/><g fill="#f9c744"><path d="m219.527 342.38v14.681c0 2.803-1.137 5.347-2.977 7.186-6.219 6.353-17.407 1.817-17.34-7.187v-22.243c0-1.561.347-3.035.973-4.354 8.584-4.532 19.528 2.152 19.344 11.917z"/><path d="m246.212 342.38v14.681c0 2.803-1.137 5.347-2.977 7.186-6.217 6.359-17.411 1.807-17.34-7.187v-22.243c0-1.561.347-3.035.973-4.354 8.583-4.532 19.528 2.152 19.344 11.917z"/></g></g><g><path d="m292.473 342.38v29.228c0 3.69-1.493 7.023-3.911 9.431-8.217 8.338-22.813 2.433-22.773-9.431v-29.227c0-5.212 2.986-9.72 7.341-11.916 8.582-4.53 19.527 2.145 19.343 11.915z" fill="#dd8c29"/><path d="m319.157 342.38v29.228c0 3.69-1.493 7.023-3.911 9.431-8.217 8.338-22.813 2.433-22.773-9.431v-29.227c0-5.212 2.986-9.72 7.341-11.916 8.582-4.53 19.527 2.145 19.343 11.915z" fill="#dd8c29"/><g fill="#f9c744"><path d="m292.473 342.38v14.681c0 2.803-1.137 5.347-2.977 7.186-6.219 6.353-17.407 1.817-17.34-7.187v-22.243c0-1.561.347-3.035.973-4.354 8.583-4.532 19.528 2.152 19.344 11.917z"/><path d="m319.157 342.38v14.681c0 2.803-1.137 5.347-2.977 7.186-6.217 6.359-17.411 1.807-17.34-7.187v-22.243c0-1.561.347-3.035.973-4.354 8.583-4.532 19.528 2.152 19.344 11.917z"/></g></g></g></g></g></svg>