<svg id="Icons" enable-background="new 0 0 512 512" height="512" viewBox="0 0 512 512" width="512" xmlns="http://www.w3.org/2000/svg"><g><circle cx="256" cy="256" fill="#ea792e" r="256"/><g><g><g><path d="m493.901 220.17c-1.83 7.59-5.71 14.79-11.65 20.73l-96.68 96.68c-17.19 17.19-45.06 17.19-62.25 0l-80.13-80.13c-3.24-3.24-5.87-6.85-7.89-10.7-8.69-16.61-6.06-37.6 7.89-51.55l96.68-96.68c17.19-17.19 45.06-17.19 62.25 0l80.13 80.13c11.26 11.26 15.14 27.1 11.65 41.52z" fill="#c2aacf"/><path d="m493.901 220.17c-1.83 7.59-5.71 14.79-11.65 20.73l-96.68 96.68c-17.19 17.19-45.06 17.19-62.25 0l-80.13-80.13c-3.24-3.24-5.87-6.85-7.89-10.7l51.33-51.33c50.4-50.4 132.12-50.4 182.53 0z" fill="#a583bb"/></g><g><path d="m18.099 220.17c1.83 7.59 5.71 14.79 11.65 20.73l96.68 96.68c17.19 17.19 45.06 17.19 62.25 0l80.13-80.13c3.24-3.24 5.87-6.85 7.89-10.7 8.69-16.61 6.06-37.6-7.89-51.55l-96.68-96.68c-17.19-17.19-45.06-17.19-62.25 0l-80.13 80.13c-11.26 11.26-15.14 27.1-11.65 41.52z" fill="#a583bb"/><path d="m18.099 220.17c1.83 7.59 5.71 14.79 11.65 20.73l96.68 96.68c17.19 17.19 45.06 17.19 62.25 0l80.13-80.13c3.24-3.24 5.87-6.85 7.89-10.7l-51.33-51.33c-50.4-50.4-132.12-50.4-182.53 0z" fill="#9175a7"/></g><g><circle cx="371.677" cy="116.69" fill="#decee5" r="22.941"/><circle cx="140.323" cy="116.69" fill="#c2aacf" r="22.941"/></g></g><g><path d="m356.69 202.14-15.7 115.73c-2.53 18.67-18.48 32.6-37.32 32.6h-95.34c-18.84 0-34.79-13.93-37.32-32.6l-15.7-115.73c-2.03-14.92 1.23-29.21 8.24-41.12 11.08-18.83 31.54-31.69 55.35-31.69h74.2c23.81 0 44.27 12.86 55.34 31.68 7.02 11.91 10.28 26.2 8.25 41.13z" fill="#c2aacf"/><path d="m356.69 202.14-15.7 115.73c-2.53 18.67-18.48 32.6-37.32 32.6h-47.67v-221.14h37.1c38.87 0 68.82 34.29 63.59 72.81z" fill="#decee5"/></g><g><g><path d="m327.974 263.161c-8.144 8.144-21.371 8.144-29.515 0-8.154-8.154-8.144-21.371 0-29.515 2.208-2.208 4.786-3.82 7.538-4.827 7.405-2.722 16.031-1.119 21.977 4.827 5.936 5.936 7.548 14.573 4.827 21.977-1.006 2.752-2.619 5.33-4.827 7.538z" fill="#c2aacf"/><ellipse cx="319.399" cy="242.221" fill="#ebd9ea" rx="12.127" ry="18.953" transform="matrix(.707 -.707 .707 .707 -77.726 296.793)"/><path d="m326.404 248.403c0 5.679-3.602 10.53-8.642 12.389-1.423.508-2.948.799-4.546.799-7.291 0-13.187-5.911-13.187-13.188 0-7.291 5.897-13.187 13.187-13.187 1.598 0 3.123.29 4.546.799 5.04 1.858 8.642 6.695 8.642 12.388z" fill="#3f5d77"/><ellipse cx="317.762" cy="248.403" fill="#2e3140" rx="8.642" ry="12.389"/><circle cx="313.213" cy="245.291" fill="#83d5ef" r="6.5"/></g><g><path d="m212.748 263.161c-8.144 8.144-21.371 8.144-29.515 0-8.154-8.154-8.144-21.371 0-29.515 2.208-2.208 4.786-3.82 7.538-4.827 7.405-2.722 16.031-1.119 21.977 4.827 5.936 5.936 7.548 14.573 4.827 21.977-1.007 2.752-2.619 5.33-4.827 7.538z" fill="#a583bb"/><ellipse cx="204.172" cy="242.221" fill="#decee5" rx="12.127" ry="18.953" transform="matrix(.707 -.707 .707 .707 -111.475 215.316)"/><path d="m211.177 248.403c0 5.679-3.602 10.53-8.641 12.389-1.423.508-2.948.799-4.546.799-7.291 0-13.187-5.911-13.187-13.188 0-7.291 5.897-13.187 13.187-13.187 1.598 0 3.123.29 4.546.799 5.04 1.858 8.641 6.695 8.641 12.388z" fill="#3f5d77"/><ellipse cx="202.536" cy="248.403" fill="#2e3140" rx="8.642" ry="12.389"/><circle cx="197.986" cy="245.291" fill="#83d5ef" r="6.5"/></g></g><g><g><path d="m377.75 396.51v10.37c0 33.77-27.38 61.15-61.15 61.15h-60.6c-24.32 0-44.03-19.71-44.03-44.03v-85.06c.002-24.32 19.713-44.03 44.03-44.03 24.32 0 44.03 19.72 44.03 44.03v62.97c0 9.69 7.85 17.54 17.54 17.54h7.55c9.69 0 17.54-7.85 17.54-17.54v-5.4c0-4.85 1.96-9.23 5.14-12.4 10.795-10.957 30.009-3.193 29.95 12.4z" fill="#c2aacf"/><path d="m360.2 378.97v16.871c0 22.041-17.868 39.909-39.909 39.909h-24.383c-22.041 0-39.909-17.868-39.909-39.909v-100.931c24.32 0 44.03 19.72 44.03 44.03v62.97c0 9.687 7.853 17.54 17.54 17.54h7.55c9.687 0 17.54-7.853 17.54-17.54v-5.4c-.004-9.69 7.865-17.539 17.541-17.54z" fill="#decee5"/></g><g><g><path d="m275.772 408.456-3.645-1.504c-5.163-2.134-10.642-3.201-16.127-3.201-5.486 0-10.964 1.067-16.127 3.201l-3.645 1.504c-4.01 1.661-7.655-3.029-5.056-6.517l7.305-9.782c4.376-5.858 10.95-8.78 17.524-8.78s13.148 2.922 17.524 8.78l7.305 9.782c2.598 3.488-1.047 8.178-5.058 6.517z" fill="#a583bb"/><path d="m275.772 408.456-3.645-1.504c-5.163-2.134-9.824-3.201-15.31-3.201l-.817-20.374c6.574 0 13.148 2.922 17.524 8.78l7.305 9.782c2.599 3.488-1.046 8.178-5.057 6.517z" fill="#c2aacf"/></g><g><path d="m279 377.937-4.24-1.749c-6.006-2.482-12.379-3.724-18.76-3.724s-12.754 1.241-18.76 3.724l-4.24 1.749c-4.665 1.933-8.905-3.524-5.881-7.581l8.497-11.379c5.09-6.814 12.737-10.213 20.384-10.213s15.295 3.399 20.384 10.213l8.497 11.379c3.024 4.057-1.216 9.513-5.881 7.581z" fill="#a583bb"/><path d="m279 377.937-4.24-1.749c-6.006-2.482-12.379-3.724-18.76-3.724v-23.7c7.647 0 15.295 3.399 20.384 10.213l8.497 11.379c3.024 4.057-1.216 9.513-5.881 7.581z" fill="#c2aacf"/></g><g><path d="m283.61 345.318-5.09-2.1c-7.21-2.98-14.86-4.47-22.52-4.47s-15.31 1.49-22.52 4.47l-5.09 2.1c-5.6 2.32-10.69-4.23-7.06-9.1l10.2-13.66c6.11-8.18 15.29-12.26 24.47-12.26s18.36 4.08 24.47 12.26l10.2 13.66c3.63 4.87-1.46 11.42-7.06 9.1z" fill="#a583bb"/><path d="m283.61 345.318-5.09-2.1c-7.21-2.98-14.86-4.47-22.52-4.47v-28.45c9.18 0 18.36 4.08 24.47 12.26l10.2 13.66c3.63 4.87-1.46 11.42-7.06 9.1z" fill="#c2aacf"/></g><g><path d="m286.59 306.8-5.639-2.327c-7.988-3.302-16.464-4.952-24.951-4.952s-16.963 1.651-24.951 4.952l-5.639 2.327c-6.205 2.57-11.844-4.687-7.822-10.082l11.301-15.134c6.769-9.064 16.94-13.584 27.111-13.584s20.342 4.52 27.111 13.583l11.301 15.134c4.022 5.397-1.617 12.654-7.822 10.083z" fill="#a583bb"/><path d="m286.59 306.8-5.639-2.327c-7.988-3.302-16.464-4.952-24.951-4.952v-31.521c10.171 0 20.342 4.52 27.111 13.583l11.301 15.134c4.022 5.397-1.617 12.654-7.822 10.083z" fill="#c2aacf"/></g></g></g><g><g><path d="m329.82 325.18c0 .47-.02.95-.07 1.43l-5.85 61.01c-.32 3.35-2 6.27-4.47 8.22-2.05 1.64-4.64 2.6-7.44 2.6-6.6 0-11.96-5.36-11.96-11.96v-61.29c0-8.22 6.67-14.89 14.89-14.89 2.73 0 5.28.73 7.46 1.99 4.47 2.6 7.44 7.43 7.44 12.89z" fill="#fff"/><path d="m329.82 325.18c0 .47-.02.95-.07 1.43l-5.85 61.01c-.32 3.35-2 6.27-4.47 8.22-2.75-2.2-4.51-5.57-4.51-9.36v-61.29c0-5.51 3-10.33 7.46-12.9 4.47 2.6 7.44 7.43 7.44 12.89z" fill="#f4e6f4"/></g><g><path d="m182.18 325.18c0 .47.02.95.07 1.43l5.85 61.01c.32 3.35 2 6.27 4.47 8.22 2.05 1.64 4.64 2.6 7.44 2.6 6.6 0 11.96-5.36 11.96-11.96v-61.29c0-8.22-6.67-14.89-14.89-14.89-2.73 0-5.28.73-7.46 1.99-4.47 2.6-7.44 7.43-7.44 12.89z" fill="#f4e6f4"/><path d="m182.18 325.18c0 .47.02.95.07 1.43l5.85 61.01c.32 3.35 2 6.27 4.47 8.22 2.75-2.2 4.51-5.57 4.51-9.36v-61.29c0-5.51-3-10.33-7.46-12.9-4.47 2.6-7.44 7.43-7.44 12.89z" fill="#ebd9ea"/></g></g><g><path d="m256 129.33h37.1c23.81 0 44.27 12.86 55.34 31.68l-.29.967c-8.351 27.833-33.969 46.893-63.027 46.893h-29.123z" fill="#ebd9ea"/><path d="m256 129.33h-37.1c-23.81 0-44.27 12.86-55.34 31.68l.29.967c8.351 27.833 33.969 46.893 63.027 46.893h29.123z" fill="#decee5"/></g></g></g></svg>